/* XPM */
static char *dummy[]={
"48 48 204 2",
"Qt c None",
"aS c #10a2ff",
"aQ c #18a6ff",
"aL c #21aaff",
"aF c #29b2ff",
"aw c #31b6ff",
"aE c #39a2ef",
"ax c #39aeff",
"av c #39b6ff",
"ar c #39baff",
"bg c #424584",
"as c #42a2f7",
"aA c #42b6ff",
"an c #42baff",
"aq c #42beff",
"aR c #4a4db5",
"bj c #4a518c",
"ao c #4aa2ef",
"aM c #4ab6ff",
"aj c #4abeff",
"am c #4ac3ff",
"be c #52558c",
"bi c #525994",
"aK c #528ed6",
"al c #52aeef",
"ai c #52beff",
"ag c #52c3ff",
"ac c #52c7ff",
"#v c #5a4973",
"aZ c #5a5dc6",
"ah c #5a96de",
"ab c #5ac7ff",
"#7 c #5acbff",
"aP c #6361c6",
"a# c #63659c",
"#u c #6365a5",
"a0 c #6365ad",
"a5 c #6365ce",
"#2 c #63cbff",
"#1 c #63cfff",
"#V c #6b699c",
"#J c #6b69a5",
"#N c #6b69b5",
"#t c #6b69ce",
"#Q c #6b6d9c",
"#4 c #6b6da5",
"#n c #6b6dad",
"ak c #6b6dc6",
"#D c #6b6dce",
"#8 c #6b7dce",
"#T c #6bb6ef",
"#Z c #6bc3f7",
"#Y c #6bcfff",
"#S c #6bd3ff",
"#R c #7371a5",
"#H c #7371bd",
"#M c #7371c6",
"aW c #73759c",
"aC c #7375a5",
"ae c #7375ad",
"#6 c #7375b5",
"#U c #7375c6",
"#C c #7375ce",
"#z c #7392ce",
"#L c #73a6de",
"aX c #73c7ff",
"#P c #73d3ff",
"#K c #73d7ff",
"#i c #7b79bd",
"#3 c #7b79c6",
"#s c #7b79ce",
"b. c #7b7da5",
".f c #7b7dad",
".z c #7b7db5",
"az c #7b7dce",
"ay c #7b86bd",
"aa c #7b9ac6",
"#E c #7bc3ef",
"#w c #7bd3ff",
"#F c #7bd7ff",
"#x c #7bdbff",
"aI c #8482a5",
".p c #8482b5",
"#A c #8482c6",
"ad c #8482ce",
".n c #8486ad",
".o c #8486b5",
"#0 c #8486bd",
"af c #848eb5",
".y c #848ebd",
"#O c #84a2c6",
".O c #84b2d6",
"#G c #84dbff",
"#y c #84dfff",
".x c #8c8aad",
".e c #8c8ab5",
"a. c #8c8abd",
"#9 c #8c8ace",
".I c #8c8ea5",
"#W c #8c8ebd",
"aJ c #8c8ec6",
"aO c #8c8ece",
".J c #8c9ab5",
".8 c #8cc7ef",
"#o c #8cdfff",
"#h c #8ce3ff",
".X c #94929c",
".Y c #9492a5",
".m c #9492b5",
".A c #9492bd",
"#5 c #9492c6",
"#q c #9496ce",
".Z c #949ab5",
"#a c #949ebd",
"aB c #94a2d6",
".K c #94b2ce",
"aG c #94baef",
"#p c #94e3ff",
"#g c #94e7ff",
".a c #9c9ac6",
"#X c #9c9ace",
"aH c #9c9ad6",
".H c #9c9eb5",
".l c #9c9ebd",
".R c #9c9ec6",
"#j c #9c9ece",
"#I c #9c9ed6",
"#m c #9c9ede",
"a4 c #9ca2ce",
"aV c #9ca6ad",
".0 c #9caac6",
"a3 c #9cb69c",
"aU c #9cc794",
".L c #9cc7e7",
"#d c #9ccbde",
"aT c #9ccbf7",
".M c #9cd7f7",
".N c #9ce7ff",
"#f c #9cebff",
"a2 c #9cff63",
".W c #a5a2ad",
"bh c #a5a2c6",
"au c #a5a2ce",
".P c #a5a2d6",
".w c #a5a6bd",
".# c #a5a6ce",
".7 c #a5ebff",
"bb c #adaaad",
".k c #adaace",
"aD c #adaad6",
"at c #adaade",
"a9 c #adaec6",
"## c #adaed6",
".q c #adb6ce",
"aN c #adb6de",
".1 c #adc3d6",
"#e c #add7f7",
".6 c #adefff",
"#c c #adf3ff",
".G c #b5b2c6",
"ba c #b5b2ce",
".Q c #b5b2d6",
"ap c #b5b2de",
".b c #b5b6d6",
"#. c #b5b6de",
".2 c #b5dfe7",
".5 c #b5f3ff",
".V c #bdbac6",
".v c #bdbace",
".d c #bdbad6",
".c c #bdbade",
"aY c #bdbae7",
"a1 c #bdbed6",
".9 c #bdbede",
".4 c #bdf7ff",
".F c #c6c3d6",
".j c #c6c3de",
"#l c #c6c3e7",
".g c #c6c7ce",
".h c #c6c7de",
".3 c #c6fbff",
".r c #cecbd6",
".u c #cecbde",
"bc c #cecfde",
".i c #cecfe7",
"#B c #cecfef",
"#b c #ceffff",
".s c #d6d3de",
"a6 c #d6d7de",
".E c #d6d7e7",
".B c #dedbde",
"bd c #dedbe7",
"#k c #dedbef",
"a8 c #dedfde",
".U c #e7e3e7",
"bf c #e7e3ef",
"a7 c #e7e7e7",
".t c #e7e7f7",
".C c #efebef",
"#r c #efebf7",
".S c #efefef",
".D c #efeff7",
"b# c #f7f3f7",
".T c #fffbff",
"QtQtQtQtQtQtQtQtQtQtQtQtQtQtQtQtQtQtQtQtQtQtQtQtQtQtQtQtQtQtQtQtQtQtQtQtQtQtQtQtQtQtQtQtQtQtQtQt",
"QtQtQtQtQtQtQtQtQtQtQtQtQtQtQtQtQtQtQtQtQtQt.#.a.a.a.aQtQtQtQtQtQtQtQtQtQtQtQtQtQtQtQtQtQtQtQtQt",
"QtQtQtQtQtQtQtQtQtQtQtQtQtQtQtQt.b.#.#.#.#.b.c.d.#.a.e.fQtQtQtQtQtQtQtQtQtQtQtQtQtQtQtQtQtQtQtQt",
"QtQtQtQtQtQtQtQtQtQt.g.b.b.b.b.b.h.i.j.k.l.m.n.n.o.p.p.pQtQtQtQtQtQtQtQtQtQtQtQtQtQtQtQtQtQtQtQt",
"QtQtQtQtQt.b.b.q.q.q.r.s.t.u.v.w.m.x.x.x.n.n.n.o.p.p.y.z.A.A.AQtQtQtQtQtQtQtQtQtQtQtQtQtQtQtQtQt",
"Qt.b.b.b.b.B.C.D.E.F.G.H.I.I.I.x.x.x.x.n.n.J.K.L.M.N.O.z.P.Q.#.R.A.A.A.AQtQtQtQtQtQtQtQtQtQtQtQt",
".b.S.T.U.r.V.W.X.Y.Y.Y.I.I.I.x.x.Z.0.1.2.3.4.5.6.7.N.8.z.#.9.9.9.9.9.9#.##.a.a.a.aQtQtQtQtQtQtQt",
".b.T.w.X.X.X.X.Y.Y.Y.I.I#a.1.2.3#b#b#b#b.3.4#c.6.7.N.8.z.#.i.i.i.i.i.i.i.i.i.i.i.i.9.k.R.R.RQtQt",
".b.S.V.X.X.X.Y.Z.K#d#e.5.4.3#b#b#b#b#b.3.4.5#c.7#f#g#h#i#j#k#k#k#k#k#k#k#k#k#k#k#k#k#k#k#l#m#nQt",
".b.B.r.X.O.8#o#p.N#f.7#c.5.4.3.3.3.3.3.4.4#c.6.7.N#p#o#i#q#r#r#r#r#r#r#r#r#r#r#r#r#l#m#s#t#t#u#v",
"Qt.V.U.X#w#x#y#h#p.N.7.6#c.5.4.4.4.4.4.5#c.6.7#f#g#h#y#z#A.h.i#k.t.T.T.T.T.D#B#m#C#D#D#D#D#D#u#v",
"Qt.b.D.Y#E#F#G#o#p#g.N.7.6#c#c.5.5.5#c#c.6.7#f.N#p#o#G#z#H.j.9.9.c#..j.i#I#D#D#D#D#D#D#D#D#D#J#v",
"Qt.b#r.w.O#K#x#G#o#p#g.N.7.7.6.6.6.6.6.7.7#f.N#p#h#y#G#L#H.9.9.9.c#..b.P#M#M#M#M#M#M#M#M#N#M#J#v",
"Qt.b.s.G#O#P#F#G#G#o#p#g.N.N.7.7.7.7.7#f.N#g#p#h#y#G#F#L#H##.9.9.c#..b.P#M#M#M#M#M#N#J#Q#R#M#J#v",
"QtQt.v.F.J#S#P#F#G#G#o#h#p#p.N.N.N.N.N#g#p#p#o#y#G#F#K#T#M##.9.9.c#..b.P#U#U#N#J#V.f#W#X.p#H#J#v",
"QtQt.b.E.I#Y#S#P#F#x#G#y#o#h#p#p#p#p#p#h#o#y#G#G#F#K#P#Z#M#X.9.9.c#..b.P#U#J#R#0#X#X#X#X.p#H#J#v",
"QtQt.b#k.m#T#1#S#P#F#F#G#G#y#y#o#o#o#y#y#G#G#x#F#P#P#Y#2#M#X.9.9.c#..b.P#3#4#W#X#X#X#q#5.p#6#4#v",
"QtQt.b.u.l#L#2#1#S#P#P#F#F#x#G#G#G#G#G#x#F#F#K#P#S#Y#2#7#8#9.9.9.c#..b.Q#3#4#W#Xa..fa#.p.p#6#4#v",
"QtQtQt.b.kaaab#2#1#Y#S#P#P#K#K#F#F#F#F#K#P#P#S#Y#1#2#7ac#8ad.9.9.c#..b.Q#A#4#Wae#V.f#5#5.f#6#4#v",
"QtQtQt.b.dafacab#7#2#1#Y#S#S#P#P#P#P#P#S#S#Y#1#2#2abacagah#M.9.9.c#..b.Q#A#4#W#W#X#0#Ra##R.z#4#v",
"QtQtQt.b.h.naiagacab#7#2#2#1#1#1#1#1#1#1#2#2#2abacagagajahak.9.9.c#..b.Q#A#4#0.f#V#V.f#5.p.z#4#v",
"QtQtQtQt.9.ealajagagacabab#7#2#2#2#2#2#7#7abacagagamajanao#tap.9.c#..b.Q#0#4#R#R#0#X#X#X.p.z#4#v",
"QtQtQtQt.Q.aahanajajagagagacacacacacacacagagagamajaqanaras#tat.9.c#..b.Qa.#4#W#X#X#X#X#X.p.p#4#v",
"QtQtQtQt.bau#zarananaqajajamamagagagamamamajaqaqananavawax#tat.9.c#..b.Qa.#4#W#X#X#X#X#X.p.p#4#v",
"QtQtQtQt.b##ayawavaranananaqaqaqaqaqaqaqanananaravawal#Laz#t##.9.c#..b.Q.A#R#W#X#X#X#Wae#Ra.#R#v",
"QtQtQtQtQt.c.zaxawawawavavararanananarararavavaA#LaBad#Daz#I.9.9.c#..b.Q.aaC#W#X#0#RaC.e.m.o#V#v",
"QtQtQtQtQtaD#0aEaFaFaFawawawawawawawawawaw#TaGaHaz#t#s##.j.j.9.9.c#..b.Q.l.fae#RaI.m.maI#Ra#a##v",
"QtQtQtQtQt.baJaKaLaLaLaFaFaFaFaFaFaFaMaGaNaO#CaP#i.P#X#X#j.Q.c.9.c#..b.Q.l.n.n.m.m.n#Qa##VaI#Q#v",
"QtQtQtQtQt.b#XaKaQaQaLaLaLaLaLaF#Z#eatadakaPaRaR.f.u.j.Q#j#X#X.P##.b.b.Q.l.m.maI#Qa##VaI.m.m#R#v",
"QtQtQtQtQtQtau#8aSaQaQaQaQaMaT#B#I#MakaPaRaRaRaR#u.u.u.h.j#..##X#X#X.PaD.laI#Va##VaI.m.HaUaVaW#v",
"QtQtQtQtQtQt#j#iaSaSaQaX#kaY#9#MakaPaZaZaZaZaZaZa0a1.u.h.j.j.9.c###j#X#X#Ra##VaI.H.H.H.Ha2a3aW#v",
"QtQtQtQtQta4#5#Aao#e.tat#3#M#9aO#Ca5a5a5a5a5a5a5#N.Q.u.h.j.j.9.9.c#..Q.PaCaI.H.H.H.H.H.Ha3.HaW#v",
"QtQtQtQta4a4#q#9aOaO#M#A##a6.b#jau#9#D#D#D#D#D#D#N.oau.9.j.j.9.9.c#..b.Q.w.W.W.W.W.W.W.W.Y#Q#v#v",
"QtQtQta4.j.S.QaO#HaH.ha7.Ua8.s.aaD.P#s#s#s#s#s#s#U.o#5.z.A##.9.9.c#..b.Qa9.W.W.W.W.W.Hb.#Q#v#vQt",
"QtQta4.h.Sb#.D#k.tb#.S.Ca7a8.B.###.Qadadadadadad#3.e.#aJ#v#v.p.#.c#..b.Qa9.W.W.W.Wb.b.#v#vQtQtQt",
"Qta4ba.C.Sb#.T.T.Tb#.S.Ca7a8.Ba1au#.aH#9#9#9#9#9#A.e.#au.p#vQt#v#v.R##.Qa9bb.W.x#Q#v#vQtQtQtQtQt",
"Qta4.B.C.Sb#.T.T.Tb#.S.Ca7a8.Ba6.a.j.Q#q#q#q#q#q#q.p.#auaJ#vQtQtQt#v#v.A.w.Y#Q#v#vQtQtQtQtQtQtQt",
"Qta4.Ua7.Sb#b#.Tb#b#.S.Ca7a8.Ba6.#.j.j#j#j#j#j#j#jaC.#auaJ#J#vQtQtQtQt#v#v#v#vQtQtQtQtQtQtQtQtQt",
"Qta4.Ua7.C.S.Sb#.S.S.Ca7.U.B.Ba6a1.d.saD.k.k.k.k.kaC.#au#Wa##vQtQtQtQtQtQtQtQtQtQtQtQtQtQtQtQtQt",
"Qta4.F.Ua7.C.C.C.C.Ca7a7a8.Ba6.sbc.kbda1bababababaaC.#au.obe#vQtQtQtQtQtQtQtQtQtQtQtQtQtQtQtQtQt",
"Qt.m.ma8.Ua7a7a7a7a7.Ua8.B.Ba6.sbc.Rbfbc.v.v.v.v.ma..P#5#Rbe#vQtQtQtQtQtQtQtQtQtQtQtQtQtQtQtQtQt",
"QtQt.m.l.Ba8.U.U.Ua8a8.B.Ba6.sbcbc.#.Ebd.g.ga9.oa..#.aaebg#vQtQtQtQtQtQtQtQtQtQtQtQtQtQtQtQtQtQt",
"QtQtQt.m.e.r.B.B.B.B.Ba6a6.sbcbc.ha1.a.F.l.ea..#aD.A#4bg#vQtQtQtQtQtQtQtQtQtQtQtQtQtQtQtQtQtQtQt",
"QtQtQtQt.m#V.l.ra6a6a6.s.sbcbc.h.h.Fa1bh.k.Q##.a.fbi#v#vQtQtQtQtQtQtQtQtQtQtQtQtQtQtQtQtQtQtQtQt",
"QtQtQtQtQtQt#v#v.f.l.v.hbcbc.h.h.Fa1a1ba.a.o#Vbj#v#vQtQtQtQtQtQtQtQtQtQtQtQtQtQtQtQtQtQtQtQtQtQt",
"QtQtQtQtQtQtQtQt#v#v#vbebeaI.f.f.f#Qbebebg#v#v#vQtQtQtQtQtQtQtQtQtQtQtQtQtQtQtQtQtQtQtQtQtQtQtQt",
"QtQtQtQtQtQtQtQtQtQtQt#Q#v#v#v#v#v#v#v#v#QQtQtQtQtQtQtQtQtQtQtQtQtQtQtQtQtQtQtQtQtQtQtQtQtQtQtQt",
"QtQtQtQtQtQtQtQtQtQtQtQtQtQtQtQtQtQtQtQtQtQtQtQtQtQtQtQtQtQtQtQtQtQtQtQtQtQtQtQtQtQtQtQtQtQtQtQt"};
