/* XPM */
static char *dummy[]={
"48 48 169 2",
"Qt c None",
".L c #004cb4",
".C c #005cc4",
".p c #0061c7",
"#Z c #01369a",
".G c #013ca1",
".D c #0153b8",
".E c #0244a9",
"#9 c #0861ba",
"aI c #0a3886",
"#. c #0b4a98",
".T c #0d509d",
".F c #0d57a3",
"ac c #135ea8",
"aG c #143877",
".w c #1472ce",
".A c #175596",
".M c #1849a7",
"#2 c #1862ac",
"#D c #1869c7",
".o c #1876d4",
"aB c #1a3866",
".q c #1a4a7e",
"ax c #1ca2ff",
"al c #1d1300",
"aM c #1f355d",
"#g c #206dc9",
"#Q c #225bb6",
"ab c #247dd7",
"at c #253653",
"a. c #285685",
"an c #294f75",
".U c #2956ac",
"#7 c #2977c8",
"aJ c #2a3549",
"#1 c #2a82d9",
"#F c #30343b",
"aL c #305eb3",
"#P c #327ad0",
".k c #333333",
"av c #33aaff",
".h c #3687d8",
"ak c #37485a",
".B c #383839",
".H c #3964b4",
"ao c #3b89bf",
"#G c #3f6388",
".i c #416b90",
"ai c #4287d6",
"ay c #44b0ff",
"ah c #4696e4",
".N c #4771bc",
"aD c #477bc7",
"as c #486b86",
"#6 c #4987ca",
".j c #4a4948",
"#3 c #4d5a66",
"ad c #4d79a6",
"ap c #516b84",
".# c #566366",
"#Y c #5683c9",
".v c #569ee2",
"aA c #57b6ff",
"#4 c #588abc",
"#q c #596673",
".J c #597cbf",
"aH c #618ed2",
".r c #656565",
"aE c #658ac8",
"aF c #6597d5",
"#X c #672e2e",
"aC c #67bbff",
".n c #68a8e5",
"#O c #6993ca",
".g c #69b2e6",
"am c #6c8f8f",
"#T c #6e6e6e",
"#J c #6e7479",
"#V c #706666",
"#W c #723939",
"#H c #72ace4",
"aK c #749bd7",
".I c #7595ca",
"au c #75c2fe",
".Y c #77b7f2",
"#i c #787a77",
"#j c #7b4a4a",
".f c #7cc1eb",
"#8 c #7db6e8",
".1 c #8099cc",
".s c #819ca7",
".K c #83baf3",
".l c #84a1a6",
".z c #87c4fc",
".V c #88a7d8",
"#R c #88b7eb",
"#N c #890d0d",
"#U c #898989",
"aq c #8d7740",
".a c #90afb3",
".e c #93caf9",
"#n c #9a1e1e",
".Z c #9bb6d9",
".t c #9bc2cc",
"aa c #9cd1fb",
"#w c #9f0a03",
"ag c #9f6f09",
"ar c #a08340",
".9 c #a0bce6",
".b c #a1c7cc",
".x c #a1cad9",
"#M c #a42828",
"#f c #a43232",
"#k c #a61406",
"#A c #a6ccf5",
"a# c #a89460",
".S c #a9c0e5",
"#S c #acd5ff",
".y c #afe5fc",
"#r c #b3b3b3",
"#m c #b6290c",
".O c #b7c9e6",
".m c #b7d5eb",
"#I c #b7dbfd",
".c c #b9e7fd",
".u c #bff2ff",
"#b c #c0defd",
"#t c #c13c14",
"#s c #c27676",
"#z c #c3e2fe",
"aj c #c5caac",
".d c #c5f8ff",
"az c #c7b973",
"aw c #c9c699",
"#e c #cae5ff",
".7 c #cb9800",
"#h c #cbad46",
".6 c #cc9d10",
"#0 c #ccb660",
"#E c #cccfb4",
"#a c #cda320",
"ae c #cea830",
"#C c #d1531b",
"#y c #d1b24b",
"#x c #d1bd70",
"#d c #d1e6fe",
"af c #d2d9cc",
".P c #d2deee",
"#K c #d3d9d5",
".3 c #d4d1ab",
".8 c #d4eafe",
"## c #d5c585",
"#c c #d6cd9e",
"#p c #d7e6ed",
"#B c #d99f9f",
".4 c #d9d7bc",
"#l c #dc6421",
"#o c #dce4d9",
".2 c #dcedfe",
"#5 c #dde0cf",
".5 c #e1ebef",
"#v c #e26e24",
".R c #e3f1fe",
"#L c #e5ebf4",
".Q c #eaf5fe",
".X c #f0f6fe",
"#u c #f2862d",
".W c #f5f9fe",
".0 c #fdfefe",
"QtQtQtQtQtQtQtQtQtQtQtQtQtQtQtQtQtQtQtQtQtQtQtQtQtQtQtQtQtQtQtQtQtQtQtQtQtQtQtQtQtQtQtQtQtQtQtQt",
"QtQtQtQtQtQtQtQtQtQtQtQtQtQtQtQtQtQtQtQtQtQtQtQtQtQtQtQtQtQtQtQtQtQtQtQtQtQtQtQtQtQtQtQtQtQtQtQt",
"QtQtQtQtQtQtQtQtQtQtQtQtQtQtQtQtQtQtQtQtQtQt.#.#.#.#.#.#.#.#.#.#QtQtQtQtQtQtQtQtQtQtQtQtQtQtQtQt",
"QtQtQtQtQtQtQtQtQtQtQtQtQtQtQt.#.#.#.#.#.#.#.a.b.c.d.e.f.g.h.i.j.kQtQtQtQtQtQtQtQtQtQtQtQtQtQtQt",
"QtQtQtQtQtQtQtQt.#.#.#.#.#.#.#.l.b.m.d.d.e.f.n.h.o.p.p.p.p.p.q.j.kQtQtQtQtQtQtQtQtQtQtQtQtQtQtQt",
"QtQtQt.r.r.r.r.r.s.t.m.u.u.c.e.g.v.h.w.p.p.p.p.p.p.p.p.p.p.p.q.j.kQtQtQtQtQtQtQtQtQtQtQtQtQtQtQt",
"QtQt.r.r.x.c.c.y.z.g.v.h.p.p.p.p.p.p.p.p.p.p.p.p.p.p.p.p.p.p.A.B.kQtQtQtQtQtQtQtQtQtQtQtQtQtQtQt",
"QtQt.r.r.c.v.p.p.p.p.p.p.p.p.p.p.p.p.p.p.p.p.p.p.p.p.C.D.E.C.F.B.kQtQtQtQtQtQtQtQtQtQtQtQtQtQtQt",
"QtQt.r.r.e.C.C.C.C.C.C.C.C.C.C.C.C.C.C.C.C.C.D.E.G.G.H.I.J.D.F.B.kQtQtQtQtQtQtQtQtQtQtQtQtQtQtQt",
"QtQt.r.r.K.C.C.C.C.C.C.C.C.C.C.C.D.L.E.G.M.N.I.O.P.Q.Q.R.S.D.T.B.kQtQtQtQtQtQtQtQtQtQtQtQtQtQtQt",
"QtQt.r.r.K.C.C.C.C.C.C.D.L.E.G.U.J.V.O.R.W.W.X.Q.Q.Q.R.R.S.D.T.B.kQtQtQtQtQtQtQtQtQtQtQtQtQtQtQt",
"QtQt.r.r.Y.C.D.L.E.G.H.I.Z.O.0.0.0.0.0.W.W.X.Q.Q.Q.R.R.R.S.D.T.B.kQtQtQtQtQtQtQtQtQtQtQtQtQtQtQt",
"QtQt.r.r.Y.C.E.1.P.0.0.0.0.0.0.0.0.0.W.W.X.Q.Q.Q.R.R.R.2.S.D.T.B.kQtQtQtQtQtQtQtQtQtQtQtQtQtQtQt",
"QtQt.r.r.e.C.E.1.0.0.0.0.0.0.0.0.0.W.W.X.Q.Q.Q.3.4.R.2.2.S.D.T.B.kQtQtQtQtQtQtQtQtQtQtQtQtQtQtQt",
"QtQt.r.r.e.C.E.1.0.0.0.0.0.0.0.0.W.W.X.Q.Q.Q.5.6.7.4.2.8.9.L#..B.kQtQtQtQtQtQtQtQtQtQtQtQtQtQtQt",
"QtQt.r.r.e.D.E.1.0.0.0.0.0.0.0.W.W.X.Q.Q.Q.R##.7#a.2.8.8#b.E.D.k.kQtQtQtQtQtQtQtQtQtQtQtQtQtQtQt",
"QtQt.r.r.e.D.L.1.0.0.0.0.0.0.W.W.X.Q.Q.Q.R.R#a.7#c.8.8.8#d.E.D.k.kQtQtQtQtQtQtQtQtQtQtQtQtQtQtQt",
"QtQt.r.r.z.D.L.J.0.0.0.0.0.W.W.X.Q.Q.Q.R.R#c.7#a.8.8.8#d#e.E.D.k.kQtQtQtQtQtQtQtQtQt#f#f#fQtQtQt",
"QtQt.r.r.K#g.L.H.0.0.0.0.W.W.X.Q.Q.Q.R.R.R#h.7##.8.8#d#e#e.E.D.k.kQtQtQtQtQtQtQt#i#j#k#l#m#nQtQt",
"QtQt.r.r.K#g.L.H.0.0.0.W.W.X.Q.Q.Q.R.R.R#o.7.7#p.8#d#e#e#e.E.D.k.kQtQtQtQt.w.w#q#r#s#t#u#v#w.kQt",
"QtQtQt.r.Y#g.D.H.0.0.W.W.X.Q.Q.Q.R.R.R.2#x.7#y.8#d#e#e#e#z.E.D.k.kQtQt.p.p.v#A.r.0#B#k#l#C#w.kQt",
"QtQtQt.r.Y#D.D.H.0.W.W.X.Q.Q.Q.R.R.R.2.2#a.7#E#d#e#e#e#z#z.E.D#F#G.w.o#H#e#e#I#J#K#L#M#k#k#N.kQt",
"QtQtQt.r#O#P.D.G.W.W.X.Q.Q.Q.R.R.R.2.2.4.7.6#d#e#e#e#z#z#b#Q.C.p.h#R.8#z#I#S.e.I#T#U#V#W#X.kQtQt",
"QtQtQt.r#Y#P.L#Z.W.X.Q.Q.Q.R.R.R.2.2.8#0.7#0#e#e#e#z#z#R#1.w.v#I.8#z#I#S.z.Y.h.w#2#3.k.k.kQtQtQt",
"QtQtQt.r#4#P.L.G.X.Q.Q#L#y#5.R.2.2.8.8.6.7#E#e#e#z#z#6#7#8#d#d#b#I#S.z.n#1.p#9a..k.kQtQtQtQtQtQt",
"QtQtQt.r#4#P.L.G.Q.Q.Q##.7.6#5.2.8.8.4.7.6#e#e#z#za#.p#b#d#b#Saa.K.vab.pac.k.k.kQtQtQtQtQtQtQtQt",
"QtQtQt.rad#P.E.G.Q.Q.R.5ae.7.6af.8.8#x.7#0#e#z.m#iag#7.K#Saa.Kah.w.p.A.k.kQtQtQtQtQtQtQtQtQtQtQt",
"QtQtQt.r.iai.E.G.m.R.R.R.5ae.7.6af#d#a.7aj#z#zakal#ham.o.n.h.p.Fan.k.kQtQtQtQtQtQtQtQtQtQtQtQtQt",
"QtQtQt.r.iai.E.G.S.R.R.2.2#pae.7#a.4.7.6#z#z#baoapaqaras.p.p.Dat.k.kQtQtQtQtQtQtQtQtQtQtQtQtQtQt",
"QtQtQt.r#G.h.E.G.S.R.2.2.8.8#pae.7.7.7#0#z#b#Iauav.e#I#S#S#Y.Eat.k.kQtQtQtQtQtQtQtQtQtQtQtQtQtQt",
"QtQtQt.r#G.h.E.G.S.2.2.8.8.8#daf.6.7.7aw#b#I#I#Saxav.e#S#S#Y.Eat.k.kQtQtQtQtQtQtQtQtQtQtQtQtQtQt",
"QtQtQt.r.rah.E.G.S.2.8.8.8#d#e#eaj.7.7#I#I#I#I#Iayavay.z#S#Y.Eat.k.kQtQtQtQtQtQtQtQtQtQtQtQtQtQt",
"QtQtQtQt.r.h.E.G#O.8.8.8#d#e#e#e#zazae#I#I#I#I#IauayaAaA.z#Y.EaB.k.kQtQtQtQtQtQtQtQtQtQtQtQtQtQt",
"QtQtQtQt.r.h.E.G#O.8.8#d#e#e#e#z#z#Iaj#I#I#I#I#S.eaAaAaCauaD.EaB.k.kQtQtQtQtQtQtQtQtQtQtQtQtQtQt",
"QtQtQtQt.r.h.E.G#O.8#d#e#e#e#z#z#b#I#I#I#I#I#S#S#SaCaCau.zaD.EaB.k.kQtQtQtQtQtQtQtQtQtQtQtQtQtQt",
"QtQtQtQt.r#1.E.GaE#d#e#e#e#z#z#b#I#I#I#I#I#S#S#S#S.zau.z.e#Y.GaB.k.kQtQtQtQtQtQtQtQtQtQtQtQtQtQt",
"QtQtQtQt.rab.L.G#Y#e#e#e#z#z#b#I#I#I#I#I#S#S#S#S#S.e.zaFaD.M.GaB.k.kQtQtQtQtQtQtQtQtQtQtQtQtQtQt",
"QtQtQtQt.rab.E.G.H#e#e#z#z#b#I#I#I#I#I#S#S#S#S#8#Y#Q#Z#Z.G#ZaG.k.k.kQtQtQtQtQtQtQtQtQtQtQtQtQtQt",
"QtQtQtQt.r.o.E.G.H#e#z#z#b#I#I#I#I#I#S#RaH.H.G#Z.G.GaIaBaJ.k.k.kQtQtQtQtQtQtQtQtQtQtQtQtQtQtQtQt",
"QtQtQtQt.r.w.E.G.H#z#z#b#I#I#I#AaK.N.M#Z#Z.G#ZaGat.k.k.k.k.kQtQtQtQtQtQtQtQtQtQtQtQtQtQtQtQtQtQt",
"QtQtQtQt.r#2.D#ZaL#z#b#I.V#Y.U#Z#Z#Z#ZaIaMaJ.k.k.k.k.kQtQtQtQtQtQtQtQtQtQtQtQtQtQtQtQtQtQtQtQtQt",
"QtQtQtQt.r#2.D#Z.MaEaL#Z#Z#Z#Z#ZaGat#F.k.k.k.k.kQtQtQtQtQtQtQtQtQtQtQtQtQtQtQtQtQtQtQtQtQtQtQtQt",
"QtQtQtQt.rac.D#Z#Z#Z#Z#ZaIaMaJ.k.k.k.k.kQtQtQtQtQtQtQtQtQtQtQtQtQtQtQtQtQtQtQtQtQtQtQtQtQtQtQtQt",
"QtQtQtQt.r.F.D#Z#ZaGat#F.k.k.k.k.kQtQtQtQtQtQtQtQtQtQtQtQtQtQtQtQtQtQtQtQtQtQtQtQtQtQtQtQtQtQtQt",
"QtQtQtQt.raB.qaJ.k.k.k.k.kQtQtQtQtQtQtQtQtQtQtQtQtQtQtQtQtQtQtQtQtQtQtQtQtQtQtQtQtQtQtQtQtQtQtQt",
"QtQtQtQtQt.k.k.k.k.kQtQtQtQtQtQtQtQtQtQtQtQtQtQtQtQtQtQtQtQtQtQtQtQtQtQtQtQtQtQtQtQtQtQtQtQtQtQt",
"QtQtQtQtQtQtQtQtQtQtQtQtQtQtQtQtQtQtQtQtQtQtQtQtQtQtQtQtQtQtQtQtQtQtQtQtQtQtQtQtQtQtQtQtQtQtQtQt",
"QtQtQtQtQtQtQtQtQtQtQtQtQtQtQtQtQtQtQtQtQtQtQtQtQtQtQtQtQtQtQtQtQtQtQtQtQtQtQtQtQtQtQtQtQtQtQtQt"};
