/* XPM */
static char * 29_xpm[] = {
"32 32 205 2",
"  	c None",
". 	c #336600",
"+ 	c #213CEF",
"@ 	c #101CAD",
"# 	c #FFFBDE",
"$ 	c #DE5500",
"% 	c #73B200",
"& 	c #EFB284",
"* 	c #ADB6E7",
"= 	c #BD9E8C",
"- 	c #BD2C00",
"; 	c #DEBE00",
"> 	c #8C1400",
", 	c #A5B67B",
"' 	c #7B82DE",
") 	c #EF8A4A",
"! 	c #94B252",
"~ 	c #9C8E08",
"{ 	c #BDAA08",
"] 	c #6B9E08",
"^ 	c #5A82F7",
"/ 	c #9C7D00",
"( 	c #FF7910",
"_ 	c #B58E00",
": 	c #8CD700",
"< 	c #EFEBCE",
"[ 	c #DEC352",
"} 	c #4A55BD",
"| 	c #DEDFCE",
"1 	c #F7F7DE",
"2 	c #A5614A",
"3 	c #638E00",
"4 	c #EFEBB5",
"5 	c #CED7BD",
"6 	c #4A65FF",
"7 	c #94E310",
"8 	c #D6DBF7",
"9 	c #738A31",
"0 	c #94AAFF",
"a 	c #DEAE00",
"b 	c #D66D31",
"c 	c #94A26B",
"d 	c #EF6921",
"e 	c #EFD300",
"f 	c #C6BA52",
"g 	c #E7DF9C",
"h 	c #8CE700",
"i 	c #8C9ACE",
"j 	c #FFFFFF",
"k 	c #EFA25A",
"l 	c #4259EF",
"m 	c #CEC308",
"n 	c #3941C6",
"o 	c #4A7500",
"p 	c #DECF7B",
"q 	c #84A2FF",
"r 	c #BDA631",
"s 	c #D6824A",
"t 	c #73C300",
"u 	c #94D700",
"v 	c #A5D74A",
"w 	c #EF7939",
"x 	c #942C21",
"y 	c #D64900",
"z 	c #395DDE",
"A 	c #CEB221",
"B 	c #EFEB8C",
"C 	c #6B8AFF",
"D 	c #CEB600",
"E 	c #FF5900",
"F 	c #EFBA00",
"G 	c #EFEBEF",
"H 	c #7BAE29",
"I 	c #FF9A42",
"J 	c #CED3EF",
"K 	c #7B9AF7",
"L 	c #638221",
"M 	c #5A6DEF",
"N 	c #FFFFEF",
"O 	c #101CCE",
"P 	c #EF6510",
"Q 	c #FF6D10",
"R 	c #C6DB9C",
"S 	c #849E39",
"T 	c #FF8221",
"U 	c #6371C6",
"V 	c #FFA252",
"W 	c #EFF7EF",
"X 	c #FFDB21",
"Y 	c #F7CBB5",
"Z 	c #F7C79C",
"` 	c #A59621",
" .	c #FFDF52",
"..	c #D6C731",
"+.	c #8496E7",
"@.	c #FFE3D6",
"#.	c #D6A600",
"$.	c #84CB00",
"%.	c #B5C79C",
"&.	c #DEBE18",
"*.	c #84BA18",
"=.	c #DEA28C",
"-.	c #A51400",
";.	c #BDC3F7",
">.	c #5A8600",
",.	c #F75100",
"'.	c #6B86EF",
").	c #FFE77B",
"!.	c #E77D52",
"~.	c #669900",
"{.	c #849E5A",
"].	c #314DEF",
"^.	c #DEA66B",
"/.	c #6BAA00",
"(.	c #7396FF",
"_.	c #9CB6FF",
":.	c #A5E331",
"<.	c #F7FFF7",
"[.	c #CC9900",
"}.	c #426500",
"|.	c #5A79F7",
"1.	c #FF8E31",
"2.	c #7BB608",
"3.	c #FFCC00",
"4.	c #F7EFDE",
"5.	c #FFF3D6",
"6.	c #94EF00",
"7.	c #DEEBD6",
"8.	c #FF9229",
"9.	c #E7CB6B",
"0.	c #FF6D21",
"a.	c #CC3300",
"b.	c #FFFFDE",
"c.	c #FF9A52",
"d.	c #949AE7",
"e.	c #FFAA5A",
"f.	c #4269EF",
"g.	c #9CAACE",
"h.	c #F7BA00",
"i.	c #F78642",
"j.	c #CE8A84",
"k.	c #DEE3FF",
"l.	c #8CA6F7",
"m.	c #7BCF00",
"n.	c #9C3010",
"o.	c #F77529",
"p.	c #F76500",
"q.	c #E7B600",
"r.	c #BD9600",
"s.	c #84D300",
"t.	c #94E700",
"u.	c #FF7D31",
"v.	c #E74500",
"w.	c #5A8610",
"x.	c #F7F7E7",
"y.	c #BDBEDE",
"z.	c #FF6508",
"A.	c #F7F7EF",
"B.	c #7382F7",
"C.	c #94B263",
"D.	c #F7E7CE",
"E.	c #73AE08",
"F.	c #6BA600",
"G.	c #6BBA00",
"H.	c #CEA200",
"I.	c #A58A00",
"J.	c #527900",
"K.	c #FF7108",
"L.	c #FFCB08",
"M.	c #94B6F7",
"N.	c #7B92FF",
"O.	c #7BBE00",
"P.	c #8CDB00",
"Q.	c #F7A25A",
"R.	c #CEE794",
"S.	c #739AFF",
"T.	c #FFFFE7",
"U.	c #FFF7E7",
"V.	c #F7CB00",
"W.	c #7BC700",
"X.	c #FFFFCC",
"Y.	c #D6AA00",
"Z.	c #EFF7F7",
"`.	c #E7BA00",
" +	c #FFAA63",
".+	c #EFEBF7",
"++	c #F7FFE7",
"@+	c #FFD300",
"#+	c #FFFFF7",
"$+	c #F7C300",
"%+	c #94E308",
"&+	c #738AFF",
"*+	c #63A200",
"=+	c #EF964A",
"-+	c #94DF00",
";+	c #EFC700",
">+	c #5A75EF",
",+	c #FFEFD6",
"'+	c #F7FFFF",
")+	c #84DB00",
"!+	c #73BA00",
"~+	c #6BAE08",
"{+	c #FFA25A",
"]+	c #F7EFE7",
"^+	c #7B9AFF",
"                                                                ",
"                                                                ",
"                  #+U.5.D.,+#+                                  ",
"            N D.Z & & Q.i.w !.=.@.                              ",
"            4 b o.I V 1.K.E ,.- n.=                             ",
"            & P T I e.=+( p.,.a.> 2 x.5 #+                T.<.  ",
"          #+) Q 8.e.c.u.Q E v.a.> Y R . S g ++    #+++4 R.S %.  ",
"          @.d ( I  +I ( z.$ y -.x ]+C.. >.~.H v v v :.7 W.J.5   ",
"          Z p.T Q.{+8.( E $ y -.2 #+L o ~./.G.t m.t.t.-+!+9 #+  ",
"        #+k p.8.e.V 1.0.E y - -.=.7.}.J.~.% O.m.P.t.t.-+*+c     ",
"        # s o.I  +c.o.z.E y - n.D., . 3 F.% W.m.P.6.t.u >.5     ",
"        Z d u.I I T K.E ,.y -.2 U.9 }.3 F.% W.s.-+6.t.O.L W     ",
"        Q.p.o.=+k k =+b y - -.j.7.}.o ~.E.O.$.: %+6.t.F.{.      ",
"        ^.=+Z < G G A.5.Z b > Y %.. >.] E.O.$.: h 6.P.3 %.      ",
"      '+k.J ;.;._.l.q _.8   5 1 9 }.3 ] 2.O.s.h 6.h $.w.|       ",
"      ;.M B.q 0 q (.^ z n U k.  c }.>./.t m.)+h 6.: ~.S         ",
"    <.'.6 S._.M.l.(.'.6 + @ d.# # | C.H ~+!+W.$.*.! %.x.        ",
"    .+f.|.q _.0 K &+|.l + @ k.f ` g T.W 7.5 5 | 4 B B U.        ",
"    ;.f.C 0 _.0 N.C M z O } #+` / _ A 9.).).). .X e A U.        ",
"    +.f.(._._.q (.^ f.].O d.4 / _ [.H.Y.`.$+3.3.3.F 9.          ",
"  Z.>+|.q _.0 ^+(.^ z + O 8 p / r.r.Y.q.$+3.3.3.3.a 4           ",
"  J f.C l._.0 K C |.z O n A.r / r.H.Y.`.$+3.3.3.3.&.1           ",
"  0 6 S._._.q (.C 6 ].O ' X.~ I.[.H.a F V.3.3.3.$+[ #+          ",
"  B.6 '.+.+.' '.M l + O ;.B / _ [.#.q.$+3.3.3.3.; g             ",
"  } U i y.J 8 J * U @ @ .+f / r.r.Y.q.$+3.3.L.3.m 4.            ",
"  J Z.              g.i # ~ I.r.H.a F 3.3.3.3.V...              ",
"                        4 ` / r.#.a h.3.3.3.3.; p G             ",
"                          1 p r { D ; $+;+&...p U.              ",
"                              # 4 g g g 4 < T.                  ",
"                                                                ",
"                                                                ",
"                                                                "};
