/* XPM */
static char *dummy[]={
"48 48 255 2",
"Qt c None",
"bR c #005bc7",
"bI c #005dcb",
"bD c #005dcd",
"bG c #005ed0",
"bg c #0060d3",
"bc c #0061d6",
"a4 c #0063da",
"aZ c #0065de",
"aR c #0065e1",
"aI c #0068e3",
"az c #0069e6",
"aG c #006ae9",
"at c #006aeb",
"am c #006bec",
"aw c #006cee",
"aj c #006df1",
"aV c #006ef0",
"al c #006ef3",
"aH c #006ff5",
"aM c #006ff6",
"ad c #0070f5",
"#3 c #0070f8",
"ay c #0071f7",
"ac c #0071fa",
"#2 c #0072f9",
"#4 c #0072fa",
"#1 c #0072fc",
"a0 c #0164da",
"#6 c #0174fe",
"aE c #0466dc",
"bl c #0468dd",
"a5 c #0561cf",
"au c #0569e0",
"a8 c #065bc0",
"bw c #065ecb",
"aW c #0662d5",
"a3 c #066de3",
"#5 c #0678ff",
"aU c #076fe7",
"ai c #0777ff",
"ar c #0874f1",
"aD c #0a74ea",
"#U c #0b7bff",
"aS c #0c62c9",
"#X c #117bf8",
"#V c #1282ff",
"bd c #1458ab",
"aQ c #147dee",
"bb c #1685ef",
"#T c #1788ff",
"bo c #18a6ff",
"aA c #1b62b8",
"bE c #1d569b",
"#L c #2091ff",
"#K c #2194fc",
"ae c #2269d5",
"bj c #24abff",
"bk c #25a3fd",
"bh c #28568e",
"#M c #2a93fb",
"bf c #2aaeff",
"br c #2d99ee",
"#S c #2ea1ff",
"b# c #2fb1ff",
"ax c #308dfa",
"#Z c #349afb",
"ba c #35b4ff",
"aJ c #3768a1",
"#7 c #3776cb",
"bm c #3a5575",
"#R c #3aadff",
"a7 c #3ab6ff",
"#s c #3f8ade",
"#J c #3fb8ff",
"#w c #43a5fa",
"a2 c #43b5fd",
"aL c #4498fb",
"#W c #45bbff",
"a6 c #48a7ec",
"#v c #48b6fd",
"#0 c #49beff",
"a1 c #4b4b4b",
"b5 c #4e4e56",
"aP c #4fc1ff",
"#F c #50c9ff",
"#Q c #51b6fd",
"bv c #546fd1",
".2 c #555970",
"#E c #55c4ff",
"bW c #56565b",
"#r c #568ad5",
"#y c #5699e2",
"#t c #59b4eb",
"aF c #5ac6fe",
"bC c #5b5bc0",
"#u c #5cd5ff",
"#x c #5da8f8",
"b4 c #5f5f83",
"aC c #5fc9ff",
".z c #616162",
"#e c #646475",
"aq c #65befb",
"av c #65cbff",
"#l c #666688",
"b3 c #686892",
"bB c #6969c8",
"b8 c #6a6a6a",
"ap c #6aceff",
"bi c #6c80cb",
"#I c #6ce7ff",
"b7 c #6d6d6d",
"bx c #6e6e6e",
"ak c #6ed0ff",
"aT c #7095c8",
"ao c #71a7d5",
"#9 c #72d1ff",
"bY c #73739c",
"a# c #75b3fc",
"#q c #75cafd",
"af c #75d3ff",
"#Y c #76d4ff",
"bu c #7878c8",
"aN c #79797d",
"#A c #79c1e8",
"b0 c #7a7aaa",
".1 c #7a7ab8",
"aY c #7a89ba",
"#N c #7ad6ff",
"#B c #7dd7ff",
"b6 c #7e7e8e",
".q c #8080b2",
"#O c #80d9ff",
"b1 c #8181aa",
"bq c #8181c1",
"aB c #8390b4",
"bV c #839ad6",
"#C c #83dbff",
".i c #8484a7",
".p c #8484ae",
"ag c #84d5ff",
".r c #858585",
".H c #85a1c6",
"a. c #85dbff",
".y c #8686ad",
".G c #8686b5",
".x c #8787ab",
"bA c #8787cc",
"#P c #87dcff",
".w c #8888aa",
"by c #8989c2",
".h c #898ab7",
"ab c #89bdfc",
"#G c #89efff",
".I c #8ab2d3",
"#d c #8bc3e6",
".F c #8c8ca6",
"#D c #8cdeff",
".S c #8e8ea4",
"#g c #8e96ac",
".o c #9090b4",
"b. c #9090c3",
"#p c #90e1ff",
".R c #9191a1",
"bH c #9292cc",
".J c #92cbec",
".6 c #94949e",
".T c #94a5bc",
"#k c #94e3ff",
"aO c #9696bd",
".0 c #96e4ff",
"bs c #99c9f9",
"be c #9a9aca",
"#m c #9ad8f8",
"#o c #9ae6ff",
".n c #9b9bc2",
"#H c #9cf1ff",
"bp c #9d9dd0",
"#j c #9de7ff",
".U c #9fbcd2",
".Z c #9fe8ff",
".v c #a0a0ba",
"aX c #a0a0c3",
"#n c #a1eaff",
".g c #a2a2c9",
"bM c #a2a2ce",
".7 c #a2b5c9",
"#c c #a4ebff",
".Q c #a5a5b0",
"a9 c #a5a5cf",
".b c #a7a7c9",
".Y c #a7ecff",
"#i c #aaeeff",
"bn c #ababd3",
".E c #acacc2",
".3 c #adadb4",
".m c #adadcc",
".V c #add0e5",
"#b c #adefff",
".X c #aef1ff",
".W c #afe5f5",
".e c #b2b2d3",
".P c #b3b3c1",
"#a c #b3f2ff",
".j c #b4b4ca",
".K c #b6b6ba",
"aa c #b6d6fd",
".f c #b7b7d7",
"#h c #b8f3fd",
"bz c #b9b9e0",
".d c #babad2",
"## c #bbf6ff",
".# c #bdbdce",
".a c #bebed8",
".8 c #bfe9ef",
".c c #c3c3d5",
"#. c #c3faff",
".k c #c4c4dc",
".s c #c6c6cd",
"bt c #c6cbe8",
".l c #c8c8de",
"#8 c #c9c9d7",
".9 c #cbffff",
".A c #ccccd2",
"bZ c #ceced9",
"as c #cee3fb",
".t c #cfcfdf",
"aK c #d1d1e5",
"bX c #d2d2da",
".B c #d5d5db",
".D c #d5d5e2",
"b2 c #d7d7db",
"bL c #dadadc",
"an c #dcdce8",
".5 c #dddddd",
".O c #dddde3",
"bK c #dfdfdf",
"bQ c #e3e3e3",
"#f c #e3e3e5",
".u c #e3e3ee",
"bJ c #e4e4e4",
"bF c #e4e4f3",
".L c #e5e5e6",
"bP c #e6e6e6",
"bO c #e9e9e9",
".4 c #ededed",
"bN c #eeeeee",
".C c #f0f0f7",
"bS c #f2f2f2",
"#z c #f4f4f9",
".M c #f5f5f5",
"bT c #f8f8f8",
".N c #fbfbfb",
"bU c #fdfdfd",
"ah c #ffffff",
"QtQtQtQtQtQtQtQtQtQtQtQtQtQtQtQtQtQtQtQtQtQtQtQtQt.#.a.bQtQtQtQtQtQtQtQtQtQtQtQtQtQtQtQtQtQtQtQt",
"QtQtQtQtQtQtQtQtQtQtQtQtQtQtQtQtQtQtQt.#.c.#.d.e.f.f.g.h.iQtQtQtQtQtQtQtQtQtQtQtQtQtQtQtQtQtQtQt",
"QtQtQtQtQtQtQtQtQtQtQtQtQtQt.#.#.#.j.k.l.a.m.n.o.p.p.q.q.q.rQtQtQtQtQtQtQtQtQtQtQtQtQtQtQtQtQtQt",
"QtQtQtQtQtQtQtQtQt.#.s.s.c.t.u.l.d.v.o.w.x.y.y.p.p.q.q.q.q.zQtQtQtQtQtQtQtQtQtQtQtQtQtQtQtQtQtQt",
"QtQtQt.#.A.s.s.B.u.C.D.c.E.v.F.F.F.w.w.x.y.y.p.G.H.I.J.H.q.zQtQtQtQtQtQtQtQtQtQtQtQtQtQtQtQtQtQt",
"Qt.K.L.M.N.O.A.P.Q.R.R.S.S.F.F.F.w.w.x.T.U.V.W.X.Y.Z.0.I.1.2QtQtQtQtQtQtQtQtQtQtQtQtQtQtQtQtQtQt",
".3.4.5.Q.6.6.6.R.R.R.S.S.F.F.T.7.V.8.9.9#.###a#b#c.Z.0#d.1#eQtQtQtQtQtQtQtQtQtQtQtQtQtQtQtQtQtQt",
".3#f.s.6.6.6.R.R.R#g.T.U.V#h#..9.9.9.9#.#.###a#i#c#j#k#d.1#lQtQtQtQtQtQtQtQtQtQtQtQtQtQtQtQtQtQt",
".3.A.O.6.6.T.I#d#m#j#c#i#a#h###.#.#.#.#.###a.X.Y#n#o#p#q#r#s#t#u#u#v#w#x#yQtQtQtQtQtQtQtQtQtQtQt",
"Qt.K#z.6#A#B#C#D#p#o.Z.Y#b#a#h###########a.X#i#c#j#q#E#F#F#u#G.X#H#I#J#K#L#M#y#yQtQtQtQtQtQtQtQt",
"Qt.3.C.Q.I#N#O#P#p#k#o#n.Y#b.X#a#a#a#a#a.X#i#c#P#Q#R#u#G#G#u#S#T#U#V#T#S#W#R#L#X#yQtQtQtQtQtQtQt",
"Qt.3.u.P.H#Y#B#C#D#p.0#o#n.Y#i#b#b#b#b#i.Y#c#q#Z#L#F#I#0#K#U#1#2#3#3#4#5#T#S#S#T#6#7QtQtQtQtQtQt",
"QtQt#8.c#g#9#N#Oa.#D#p.0#o.Z#n#c.Y.Y#c#c.Z#q#M#V#S#S#V#6#4#3#3a#aaab#X#3ac#6#U#V#UadaeQtQtQtQtQt",
"QtQt.P.t.S#qaf#N#O#P#D#p#k.0#o#j#j#j#j#jag#M#U#L#T#6#2#3#3#3a#ahahahaa#3#3#3#2#6ai#1ajaeQtQtQtQt",
"QtQt.3.u.F#Aakaf#N#Oa.#D#D#p#k#k.0.0.0#k#wac#V#V#6#3#3#3#3#3aaahahahah#3#3#3#3#3#1#6alam#7QtQtQt",
"QtQt.3an.vaoapakaf#N#O#C#P#P#D#D#p#p#Daqar#3#U#6#3#3#3#3#3#3abahahahas#3#3#3#3#3#3#2#3atau#7QtQt",
"QtQtQt.l.E.Havapak#9#Y#B#O#C#Ca.#P#P#P#Zaw#3#1#3#3#3#3#3#3#2#Xaaahasax#2#3#3#3#3#3#3ayawazaAQtQt",
"QtQtQt.j.daBaCavapak#9af#Y#N#B#B#B#BaqaDam#3#2#3#3#3#3#3#2#2#2#2#2#2#2#2#2#3#3#3#3#3ayajazaE#7Qt",
"QtQtQt.E.k.waFaCaCavapak#9#9af#Y#Y#Y#waGaw#3#3#3#3#3#3#2#2#2#2#2#2#2#2#2#2#2#3#3#3#3#3aHazaIaJQt",
"QtQtQt.3aK.y#t#EaFaCaCavapapakakakak#MaGaj#3#3#3#3#3#2#2aLa#a#abaaaaaa#2#2#2#2#3#3#3#3aMamaIaAaN",
"QtQtQtQt.aaOaoaP#EaFaFaCaCavavavavavaQaGalay#3#3#3#3#2#2aLaaahahahahah#2#2#2#2#3#3#3#3ayawaRaS.z",
"QtQtQtQt.m.baT#0aPaP#E#EaFaFaCaCaCaCaUazal#3#3#3#3#2#2#2#2#2a#ahahahah#2#2#2#2#2#3#3#3ayaVaRaW.z",
"QtQtQtQtaX.eaY#W#W#0aPaPaP#E#E#E#E#EaIaIal#3#3#3#3#2#2#2#2#2aLahahahah#2#2#2#2#2#3#3#3ayaVaZa0a1",
"QtQtQtQt.j.f.qa2#J#W#W#0#0#0aPaPaPaPa3aRaVay#3#3#3#2#2#2#2#2aLahahahah#2#2#2#2#2#3#3#3ayawa4a5a1",
"QtQtQtQt.3.f.Ga6a7a7#J#J#W#W#W#W#W#0aDaZawaM#3#3#3#3#2#2#2#2aLahahahah#2#2#2#2#3#3#3#3aMama4a8a1",
"QtQtQtQtQta9b.#yb#babaa7a7a7#J#J#J#Jbba4azaH#3#3#3#3#2#2#2#2aLahahahah#2#2#2#2#3#3#3#3aHazbcbd.z",
"QtQtQtQtQt.nbe#rbfb#b#b#babababababa#Ka4aRajay#3#3#3#3#2#2#2aLahahahah#2#2#2#3#3#3#3ayajaZbgbh.z",
"QtQtQtQtQt.ba9bibjbjbfbfbfb#b#b#b#b#bkbla4amaM#3#3#3#3#3#2#2aLahahahah#2#2#3#3#3#3#3aMatbca5bmaN",
"QtQtQtQtQt.3bn.1bobobjbjbjbjbfbfb#aq.V#sa4aIal#3#3#3#3#3#3#2aLahahahah#2#3#3#3#3#3#3alaRbgbd.zQt",
"QtQtQtQtQtQtbpbqbrbobobobobo#QbsbtbpbubvaWbcataH#3#3#3#3#3#3aLahahahah#3#3#3#3#3#3aHaGbgbwbmbxQt",
"QtQtQtQtQtQtb.by#sbobobj#qasbzbAbBbBbBbCaebga4awad#3#3#3#3#Xbsahahahahab#X#3#3#3adambcbDbEbEQtQt",
"QtQtQtQtQtQtbeb.#ra2#mbFbnbubBbqbubBbBbBbvaebGa4amaHay#3aLahahahahahahahah#3ayaHambcbDbd.2bxQtQt",
"QtQtQtQtQt.lb.bHbybtbHbubua9#8bebpbHbBbBbBbvaebGbcaGalaMay#3#3#3#3#3#3#3ayadajazbgbIbdbmbxQtQtQt",
"QtQtQtQtbn.D.lbH.1.1bH.abJbKbL.mbMa9bAbubububvaebDbGaZaGawalaM#3ay#3adalawaza4bDbIbdbmbxQtQtQtQt",
"QtQtQt.b.LbNbNbMa9anbNbObPbQ.5#8bebnbpbububububi#7bwbIbDbgaZazatamatazaZbgbIbRa8bE.2bxQtQtQtQtQt",
"QtQt.g.O.4bS.M.N.NbTbS.4bPbQ.5.Bbe.e.ebAbAbAbAbAbAbv#7aSbRbIbIbDbDbIbIbRbRa8bEbm.zQtQtQtQtQtQtQt",
"QtQt.jbP.4bSbT.NbUbTbS.4bPbQ.5.B.ebn.abpbHbHbHbHbHby.GbV#r#7aAa8bRa8bdbdbhbm.zbxQtQtQtQtQtQtQtQt",
"QtaX#8bP.4bS.MbTbT.MbS.4bPbQ.5.B#8.g.kbnbebebebebeby.Ga9bMb.#lbW.zbW.zbxbxQtQtQtQtQtQtQtQtQtQtQt",
"Qt.n#8.LbObNbS.M.MbSbNbO.LbK.5.BbX.g.t.kbMbMbMbMbMaO.Ga9bMb.bYbxQtQtQtQtQtQtQtQtQtQtQtQtQtQtQtQt",
"QtaX.#bQbPbO.4bNbN.4bObPbQbKbL.BbX.b.laK.m.m.m.m.m.n.Ga9bM.h#lbxQtQtQtQtQtQtQtQtQtQtQtQtQtQtQtQt",
"QtQtaObKbQbPbObObObObPbQbK.5.BbXbZ.d.dan.#.j.j.j.j.v.GbMbeb0bWbxQtQtQtQtQtQtQtQtQtQtQtQtQtQtQtQt",
"QtQtb1.jbKbQbQbJbJbQbQbK.5b2.BbXbZ#8.bbO#8.#.#.#.Eb0bMbM.Gb3bWQtQtQtQtQtQtQtQtQtQtQtQtQtQtQtQtQt",
"QtQtQtbY.j.5bKbKbKbK.5bL.B.BbXbZ#8#8.n.Ob2.s.E.y.ha9a9.Gb3a1bxQtQtQtQtQtQtQtQtQtQtQtQtQtQtQtQtQt",
"QtQtQtQtbY.o.AbLbLbLb2.BbXbXbZ#8#8.c.a.naO.haO.bbn.nb0b4b5bxQtQtQtQtQtQtQtQtQtQtQtQtQtQtQtQtQtQt",
"QtQtQtQtQtb6b3.o.#.BbXbXbZbZ#8#8.c.c.a.a.f.e.e.nb0#lb5bWbxQtQtQtQtQtQtQtQtQtQtQtQtQtQtQtQtQtQtQt",
"QtQtQtQtQtQtQtaNb4bY.o.v.j.j#8.c.c.d.baX.ob0b3.2bWbWbxQtQtQtQtQtQtQtQtQtQtQtQtQtQtQtQtQtQtQtQtQt",
"QtQtQtQtQtQtQtQtQt.r#e.2.2b4bxb4b4b4.2.2bWbWbWb7bxQtQtQtQtQtQtQtQtQtQtQtQtQtQtQtQtQtQtQtQtQtQtQt",
"QtQtQtQtQtQtQtQtQtQtQtQt.r.rbxb7b8b8bxbx.r.rQtQtQtQtQtQtQtQtQtQtQtQtQtQtQtQtQtQtQtQtQtQtQtQtQtQt"};
