/* XPM */
static char *dummy[]={
"48 48 141 2",
"Qt c None",
"#b c #0468cc",
"#J c #0d5fc5",
"#L c #1069cb",
"#a c #1573d0",
"#P c #1856b8",
"#I c #2363c4",
"#g c #237bd3",
"#5 c #2951a9",
"#A c #2b5472",
"#S c #2b80d6",
".3 c #2d92d0",
"#s c #303b52",
".2 c #3392c4",
"#k c #346ab4",
"#w c #365165",
"#z c #3685d6",
"#o c #3a79c3",
"#p c #3e528a",
"#B c #424961",
"#G c #428dda",
"#t c #465265",
"#c c #4778ca",
"#X c #4b92dc",
".V c #4d4e85",
".4 c #4e98e4",
".B c #5453b0",
"#x c #545669",
"#y c #5498da",
"#i c #566273",
"#M c #5674c4",
"#H c #5a73b7",
"#r c #61aeab",
".A c #6363b8",
".C c #646779",
".5 c #6474c4",
"#h c #64a3e5",
".e c #666666",
"#u c #677398",
".z c #6864aa",
"aj c #697382",
"#9 c #6b70bd",
"#E c #6c8dd4",
"#2 c #6eaed0",
"#Q c #6f8a91",
".1 c #6f8daa",
"#F c #73a9e5",
".K c #7574bd",
"#n c #75b4f3",
".t c #7676c0",
".s c #7877a6",
"#T c #7bb0e9",
"#K c #7f80c3",
"#O c #83b5e9",
".y c #8586c5",
".r c #858cbb",
"#f c #86bcce",
".0 c #87b9d8",
"#W c #889c96",
".L c #8987a9",
".X c #8990ce",
"## c #8ea497",
"#4 c #8ec6ca",
"#v c #91bddd",
"a# c #92cbb9",
".G c #9393c9",
"#7 c #93c4ec",
".U c #957745",
".H c #958ba4",
"#D c #969ad1",
"#R c #98d3a8",
".F c #998569",
"#C c #99a0cd",
"ae c #99d1c5",
"#d c #99d799",
".o c #9ba2ad",
"#3 c #9bccf1",
".w c #9d865b",
".u c #9d8a70",
".W c #a3aab2",
".J c #a4a4d2",
"aa c #a5aac5",
"#8 c #a5d6f4",
"a. c #a6d2ec",
"#. c #a6dca8",
".N c #a79892",
"#Y c #a9dab5",
"ag c #aab0bc",
"#6 c #abd1cb",
"#N c #ace3b9",
".i c #afa290",
"ac c #afe3eb",
".v c #b0904d",
".x c #b0aed2",
".p c #b1adcb",
"#V c #b1cce3",
".q c #b2a6a9",
"ai c #b3b6c4",
"#l c #b4b6d9",
".n c #b6b7bb",
".9 c #b6e4bb",
".E c #b79619",
".M c #b9bde1",
"#1 c #bad7f1",
"ad c #bbe9d4",
"#0 c #bbeaca",
".k c #c0b190",
".Y c #c1c5d1",
"ab c #c3e9f8",
".T c #c5c6e4",
"ak c #c5d4d8",
".8 c #c6eacb",
".7 c #c6ead1",
"#U c #caf6eb",
".m c #ccb26d",
"af c #ccfafb",
".l c #cdb02a",
".h c #cdb04e",
".I c #cead0a",
"#e c #d6f1dd",
".S c #d7cbab",
".O c #d7d8eb",
"ah c #d8e7e4",
"#m c #d8f6eb",
"#Z c #d8fdfd",
".d c #d9c149",
"#j c #d9e8f5",
".D c #dac20b",
".g c #dcc231",
".j c #dccb9b",
".c c #e3cc2b",
".R c #e4ddcb",
".a c #e5d10c",
".# c #e6ca8e",
".f c #e7d3b0",
".P c #e7e8f4",
".6 c #e7f7ec",
"#q c #e7fdfc",
".b c #e9c573",
".Z c #ede5d7",
".Q c #f9fefe",
"QtQtQtQtQtQtQtQtQtQtQtQtQtQtQt.#QtQtQtQt.#.#QtQtQtQt.#.aQtQtQt.b.a.#QtQtQtQtQtQtQtQtQtQtQtQtQtQt",
"QtQtQtQtQtQtQtQtQt.#.#QtQtQt.#.c.d.eQt.f.c.a.c.eQt.g.c.a.h.e.h.d.i.g.eQtQtQtQtQtQtQtQtQtQtQtQtQt",
"QtQtQtQtQtQtQtQt.g.d.g.c.e.j.a.k.g.h.e.l.m.n.l.h.e.m.o.p.a.q.r.s.t.u.v.eQtQtQtQtQtQtQtQtQtQtQtQt",
"QtQtQtQtQtQtQt.d.w.x.x.a.e.s.s.y.s.a.z.A.B.B.C.D.A.A.A.A.E.F.t.y.G.H.I.eQtQtQtQtQtQtQtQtQtQtQtQt",
"QtQtQtQtQt.J.t.B.B.A.A.E.F.K.K.K.K.D.L.G.J.M.N.E.O.P.P.Q.l.H.Q.Q.J.R.E.o.eQtQtQtQtQtQtQtQtQtQtQt",
"QtQtQtQtQt.J.K.J.M.M.P.l.H.Q.Q.Q.S.I.T.Q.P.A.l.w.Q.Q.A.U.I.p.Q.P.V.I.k.W.eQtQtQtQtQtQtQtQtQtQtQt",
"QtQtQtQtQt.J.K.J.Q.X.U.I.Y.Q.Q.B.I.v.Q.Q.J.V.I.J.Q.Q.M.N.R.Q.Q.Q.J.Z.Q.W.eQtQtQtQtQtQtQtQtQtQtQt",
"QtQtQtQtQt.J.K.J.Q.X.C.R.Q.Q.Q.X.J.Q.Q.Q.Q.J.Q.Q.Q.Q.Q.Q.Q.Q.Q.Q.Q.Q.Q.W.eQtQt.0.1QtQtQtQtQtQtQt",
"QtQtQtQtQt.J.K.J.Q.Q.M.Q.Q.Q.Q.Q.Q.Q.Q.Q.Q.Q.Q.Q.Q.Q.Q.Q.Q.Q.Q.Q.Q.Q.Q.W.eQt.2.3.4.5QtQtQtQtQtQt",
"QtQtQtQtQt.J.K.J.Q.Q.Q.Q.Q.Q.Q.Q.Q.Q.Q.Q.Q.Q.Q.Q.Q.6.6.6.7.8.8.9#.#.#.##.e.2#a.4#b#c.eQtQtQtQtQt",
"QtQtQtQtQt.J.K.J.Q.Q.Q.Q.Q.6.6.6.8.8.8#.#.#.#d#d#d#.#.#..8.8.8#e.6.6.Q#f#g#a#h#b#b.X#i.eQtQtQtQt",
"QtQtQtQtQt.J.K.J#.#.#d#d#d#.#.#..8.8.8.6.6.6.Q.Q.Q.Q.Q.Q.Q.Q.Q.Q.Q.Q#j#g#g#h#a#b#k#l.Y.eQtQtQtQt",
"QtQtQtQtQt.J.K.J#m.6.Q.Q.Q.Q.Q.Q.Q.Q.Q.Q.Q.Q.Q.Q.Q.Q.Q.Q.Q.Q.Q.Q.Q#j#b#g#n#a#b#o#p.K#i.eQtQtQtQt",
"QtQtQtQtQt.J.K.J#q#q.Q.Q.Q.Q.Q.Q.Q.Q.Q.Q.Q.Q.6.6.6.7.8.8#.#.#.#.#r#b#g#n#g#b#g#s#t#u#i.eQtQtQtQt",
"QtQtQtQtQt.J.K.J#q#q#m#m.6.8.8.8#.#.#.#d#d#d#.#.#..8.8.8.6.6.6#v#b#g#n#g#b#b#w#x.r.e.eQtQtQtQtQt",
"QtQtQtQtQt.J.K.J#d#d#.#.#..8.8.8.6.6.6.Q.Q.Q.Q.Q.Q.Q.Q.Q.Q.Q#y#b#g#n#z#b#b#A#B#C.e.eQtQtQtQtQtQt",
"QtQtQtQtQt.J.K.J#q#q#q#q#q.Q.Q.Q.Q.Q.Q.Q.Q.Q.Q.Q.Q.Q.Q.Q.Q#D.J#E#F#G#b#b#k.e.s.e.eQtQtQtQtQtQtQt",
"QtQtQtQtQt.J.K.J#q#q#q#q#q#q.Q.Q.Q.Q.6.6.6.8.8.9#.#.#d#d#H#o.M.Q#l#I#b#J.B.y.e.eQtQtQtQtQtQtQtQt",
"QtQtQtQtQt.J.K.J#m#m.8.8.9#.#.#d#d#d#.#.#..8.8#e.6.6.Q#j#b#g#G#c#K.t#L#M.B#K.eQtQtQtQtQtQtQtQtQt",
"QtQtQtQtQt.J.K.J#.#N.8.8#m#m#m#q.Q.Q.Q.Q.Q.Q.Q.Q.Q.Q#j#b#g#G#g#b#k#K#E#O.e.eQtQtQtQtQtQtQtQtQtQt",
"QtQtQtQtQt.J.K.J#q#q#q#q#q#q#q#q.Q.Q.Q.Q.Q.Q.Q.Q.Q#j#b#a#G#g#b#b#P#M#y#Q.eQtQtQtQtQtQtQtQtQtQtQt",
"QtQtQtQtQt.J.K.J#q#q#q#q#q#q#q#q#q.6.6#e.8.8#.#.#R#b#a#G#S#b#b#S#F#F#T.1.eQtQtQtQtQtQtQtQtQtQtQt",
"QtQtQtQtQt.J.K.J#m#U.8.8#.#.#.#d#d#.#..9.8.8#m#V#b#a#G#z#b#b#a#T#O#O#O.1.eQtQtQtQtQtQtQtQtQtQtQt",
"QtQtQtQtQt.J.K.J#.#N.8.8#m#m#q#q#q#q.Q.Q.Q.Q#j#b#b#z#z#b#b#a#T#O#O#T#v#W.eQtQtQtQtQtQtQtQtQtQtQt",
"QtQtQtQtQt.J.K.J#q#q#q#q#q#q#q#q#q#q#q.Q.Q#q#g#b#z#z#b#b#b#y#X#X#X#h#Y.W.eQtQtQtQtQtQtQtQtQtQtQt",
"QtQtQtQtQt.J.K.J#Z#q#q#q#q#q#m#m.7.8#0#.#.#a#b#z#z#b#b#b#F#T#T#O#1.Q.Q.W.eQtQtQtQtQtQtQtQtQtQtQt",
"QtQtQtQtQt.J.K.J#0#N#.#.#d#d#.#.#0.8.7#m#2#b#z#z#a#b#b#F#O#O#O#3.Q.Q.Q.W.eQtQtQtQtQtQtQtQtQtQtQt",
"QtQtQtQtQt.J.K.J#0#U#m#m#q#q#q#q#q#q#q#v#b#z#z#a#b#a#F#O.0#O#4.8.9#.#.#W.eQtQtQtQtQtQtQtQtQtQtQt",
"QtQtQtQtQt.J.K.J#Z#Z#Z#q#q#q#q#q#q#q#q#k#5#P#a#b#b#y#y#X#X#y#O.8#e.6.6.W.eQtQtQtQtQtQtQtQtQtQtQt",
"QtQtQtQtQt.J.K.J#Z#Z#m#m#0.8#.#.#d#d#6.P#l#5#b#S#F#T#T#7#3#Z.Q.Q.Q.Q.Q.W.eQtQtQtQtQtQtQtQtQtQtQt",
"QtQtQtQtQt.J.K.J#d#.#.#N#0#0#m#m#Z.T.P#l.y#5#z#O#O#O#7#8#Z.Q.Q.Q.Q.6.6.W.eQtQtQtQtQtQtQtQtQtQtQt",
"QtQtQtQtQt.J.K.J#Z#Z#Z#Z#Z#Z#q#1.J.P#l.y#9#O#O#O#O#7a.#6.8#.#.#d#d#.#.#W.eQtQtQtQtQtQtQtQtQtQtQt",
"QtQtQtQtQt.J.K.J#Z#Z#Z#Z#Z#Z#Z.J.Q#E.K.A#y#y#y#X#X#ya#.8.8.6.6.Q.Q.Q.Q.W.eQtQtQtQtQtQtQtQtQtQtQt",
"QtQtQtQtQt.J.K.J#Z#U#U#0#0#.#..Q.J.G#9#M#f#T#O#8#Z#q.Q.Q.Q.Q.Q.Q.Q.Q.Q.W.eQtQtQtQtQtQtQtQtQtQtQt",
"QtQtQtQtQt.J.Kaa#d#.#.#0#0#m#m.J.G#9#M#O#O#3#8ab#q#q.Q.Q.Q#q.6#e.8#.#.#W.eQtQtQtQtQtQtQtQtQtQtQt",
"QtQtQtQtQt.J.K.J#Z#Z#Z#Z#Z#Z#Z#V#1#T#O#O#3#8ac#m.8#0#.#.#d#d#.#..8#e.6.W.eQtQtQtQtQtQtQtQtQtQtQt",
"QtQtQtQtQt.J.K.J#Z#Z#Z#Z#Z#Z#Z#m#fa#a##R#d#d#.#.#0.8#m#m.Q.Q.Q.Q.Q.Q.Q.W.eQtQtQtQtQtQtQtQtQtQtQt",
"QtQtQtQtQt.J.K.J#Uad#0#.#.#d#d#.#Rae#6abafaf#q#q#q#q#q#q#q.Q.Q.Q.Q.Q.6.W.eQtQtQtQtQtQtQtQtQtQtQt",
"QtQtQtQtQt.J.K.J#N#N#0#U#U#Z#Z#Zabab#Z#q#q#q#q#q#q#q#q#m.7.8#.#.#d#d#.#W.eQtQtQtQtQtQtQtQtQtQtQt",
"QtQtQtQtQt.J.K.J#Z#Z#Z#Z#Z#Z#Z#Z#Z#Z#Z#Z#m.8.8#.#.#d#d#..9.8#m.6.Q.Q.Q.W.eQtQtQtQtQtQtQtQtQtQtQt",
"QtQtQtQtQt.J.K.J#Z#Z#Z#Zaf#Uad#0#.#.#d#d#.#N.8#m#m#q#q#q#q#q#q.Q.Q.Q.Q.W.eQtQtQtQtQtQtQtQtQtQtQt",
"QtQtQtQtQt.J.K.J#0#.#.#d#d#.#N#0#U#U#Z#Z#Z#q#q#q#q#q#q#q#q#q#q#q.Q.Q.Qag.eQtQtQtQtQtQtQtQtQtQtQt",
"QtQtQtQtQtQt#K.Jad#U#U#Z#Z#Z#Z#Z#Z#Z#Z#Z#Z#Z#q#q#q#q#q#qahai.Waj#i.e.e.e.eQtQtQtQtQtQtQtQtQtQtQt",
"QtQtQtQtQtQtQt.J#Z#Z#Z#Z#Z#Z#Z#Z#Z#Z#Z#Z#Zah.Y.Waj.e.e.e.e.e.e.e.eQtQtQtQtQtQtQtQtQtQtQtQtQtQtQt",
"QtQtQtQtQtQtQt.J#Z#Z#Z#Z#Z#Zahak.o.e.e.e.e.e.e.e.eQtQtQtQtQtQtQtQtQtQtQtQtQtQtQtQtQtQtQtQtQtQtQt",
"QtQtQtQtQtQtQt.Jah.W.e.e.e.e.e.e.eQtQtQtQtQtQtQtQtQtQtQtQtQtQtQtQtQtQtQtQtQtQtQtQtQtQtQtQtQtQtQt",
"QtQtQtQtQtQtQt.e.e.eQtQtQtQtQtQtQtQtQtQtQtQtQtQtQtQtQtQtQtQtQtQtQtQtQtQtQtQtQtQtQtQtQtQtQtQtQtQt",
"QtQtQtQtQtQtQtQtQtQtQtQtQtQtQtQtQtQtQtQtQtQtQtQtQtQtQtQtQtQtQtQtQtQtQtQtQtQtQtQtQtQtQtQtQtQtQtQt"};
