/* XPM */
static char *dummy[]={
"32 32 9 1",
". c None",
"# c #000000",
"e c #800000",
"d c #808000",
"a c #808080",
"b c #c0c0c0",
"g c #ff0000",
"f c #ffff00",
"c c #ffffff",
"..........############..........",
".........###############........",
"........#####aaaa########.......",
".......####aaaaaaaa#######......",
"......####aaabaaaabaa######.....",
"......###aaaccbaabcca#######....",
".....###aaaacbaaabaca#######....",
".....###aaaacb#aabbba#######....",
"....####aaaaccbaabcca#######....",
"....####aaaabcaaaacba#######....",
"....###aaaaadddddddde########...",
"....#e#aaaaadffffffddd#######...",
"....egeeadfbffffffffddd##ee###..",
"....eeggeddddffffffddde#eee###..",
"..##eggggeeeddddddd#eeeeeee###..",
"..###eggggggeeeeeeeeeggeee####..",
"######agggggggggggggggeea######.",
"#####acbeggggggggggggeabb######.",
"#####acbggeegggggggaabbbba######",
"#####bcbggggabbbbbbbccbbba######",
"#####bcbggggbcccccccccbbbb######",
"#####bcbggggbccccccccbbbbb######",
"#####accaegebccccccccbbbba######",
"######cccbbbcccccccccbbbba######",
"######acccccccccccccbbbba#######",
"###.###bccccccccccccbbbb#######.",
"...##ddeaccccccccccbbbaddd##....",
"...#dffddabcccccccbbbaddfdd##...",
"...#dffffdddabbbbbbaddfffff###..",
"...#ddffffffdd####ddfffffdd###..",
"...####eddee#########eee#####...",
"....########################...."};
