/* XPM */
static char * 147_xpm[] = {
"32 32 114 2",
"  	c #040204",
". 	c #048284",
"+ 	c #949294",
"@ 	c #84CACC",
"# 	c #CCCACC",
"$ 	c #9CEAEC",
"% 	c #74C2C4",
"& 	c #D4EAFC",
"* 	c #8CAEC4",
"= 	c #449294",
"- 	c #A4D2FC",
"; 	c #E4EEF4",
"> 	c #54A2A4",
", 	c #045254",
"' 	c #8492D4",
") 	c #ACF2F4",
"! 	c #C4DAF4",
"~ 	c #646664",
"{ 	c #B4B2B4",
"] 	c #E4FEFC",
"^ 	c #046A6C",
"/ 	c #ACD6FC",
"( 	c #9C9AFC",
"_ 	c #246A6C",
": 	c #3486DC",
"< 	c #94DADC",
"[ 	c #44A2EC",
"} 	c #D4DAFC",
"| 	c #8CFEFC",
"1 	c #4CFEFC",
"2 	c #6486BC",
"3 	c #F4F2F4",
"4 	c #949ED4",
"5 	c #ACFEFC",
"6 	c #B4B6FC",
"7 	c #9CCAFC",
"8 	c #C4FEFC",
"9 	c #B4CAF4",
"0 	c #047A7C",
"a 	c #BCFAFC",
"b 	c #A4A2A4",
"c 	c #C4CEFC",
"d 	c #9CF2F4",
"e 	c #9CC2EC",
"f 	c #ECF6FC",
"g 	c #64B2B4",
"h 	c #949ACC",
"i 	c #C4E2FC",
"j 	c #C4C2C4",
"k 	c #F4FAFC",
"l 	c #BCDAFC",
"m 	c #2CA6FC",
"n 	c #B4D2EC",
"o 	c #348284",
"p 	c #8CCAFC",
"q 	c #7CCACC",
"r 	c #548ECC",
"s 	c #ECF2F4",
"t 	c #8C9ADC",
"u 	c #ACB2CC",
"v 	c #1C6A6C",
"w 	c #B4D6FC",
"x 	c #347A7C",
"y 	c #54B6FC",
"z 	c #D4E2FC",
"A 	c #6CFEFC",
"B 	c #6C9ED4",
"C 	c #B4FAFC",
"D 	c #D4FEFC",
"E 	c #C4D6FC",
"F 	c #BCD2FC",
"G 	c #9C9A9C",
"H 	c #8CD2D4",
"I 	c #A4EAEC",
"J 	c #7CC2C4",
"K 	c #DCEEFC",
"L 	c #94B6EC",
"M 	c #4C9A9C",
"N 	c #E4F2FC",
"O 	c #5CAAAC",
"P 	c #146264",
"Q 	c #8C96DC",
"R 	c #CCDEFC",
"S 	c #ECFEFC",
"T 	c #047274",
"U 	c #A4A6FC",
"V 	c #2C7274",
"W 	c #3C96E4",
"X 	c #9CE2E4",
"Y 	c #D4DEFC",
"Z 	c #9CFEFC",
"` 	c #5CFEFC",
" .	c #FCF6F4",
"..	c #94A6D4",
"+.	c #ACC6EC",
"@.	c #94D2FC",
"#.	c #CCFEFC",
"$.	c #047A84",
"%.	c #BCFEFC",
"&.	c #ACAAAC",
"*.	c #A4F2F4",
"=.	c #A4BEE4",
"-.	c #6CBABC",
";.	c #CCE2FC",
">.	c #FCFEFC",
",.	c #34A6FC",
"'.	c #B4D2F4",
").	c #3C8284",
"!.	c #ACB6D4",
"~.	c #B4DAFC",
"{.	c #64BAFC",
"].	c #7C96C4",
"^.	c #B4FEFC",
"/.	c #CCD6FC",
"j # # # / l w '.'.9 9 9 n +.9 9 9 9 e !.!.=.].# # j # # j # j # ",
"# j # j ;.>.>.>.>.>.>.>.k o 5   >.>. .3 s n * ~ j # j # # # # j ",
"j # # # ;.>.>.>.>.>.>.k o $ $ $   >.>.k N n @.].~ # # j # # j # ",
"# j # j i >.>.>.>.>.>.o P -.-.% ,   f k s +.p y B ~ # # j # # # ",
"j # # # ;.>.>.>.>.>.>.x P P = P P   k s f e {.,.m r ~ # j # j # ",
"# j # j ! >.>.>.>.>.>.>.x P P P   >.s f N L [ W : : 2 ~ # # # j ",
"j # # # ! >.>.>.>.>.>.>.>.o P   >.>.N N N R 6 U U ( ' ~ j # j # ",
"# j # j i k >.k >.>.>.k >.k   k >.>.f N K ; } /.c F t ~ # # # j ",
"j # # # j o o x o x o o x o o o x o N N N K K K & c t ~ j # j # ",
"# j # # x ] D #.P 5 | | . A 1 1 .   & x x & K K & F Q ~ # # # j ",
"j # j x P P P P P , P   $ d $ . .   x ^ P   K K & F t ~ j # j # ",
"# # x ] ] ] P %.^.| ,   , $ d . 0 % $ -.P ^   & ;.l Q ~ # # # j ",
"# x P P P   #.#.a , ,   , , $ 0 % 5 $ % = P P   ;.c t ~ j # j # ",
"x % J % P   , #.8 , ,   , , , T   o X -.P P   ~.l l Q ~ # # # j ",
"o ^.^.) P   , , #., ,           T   x P P   l l i F t ~ j # j # ",
"o 5 C *.P   , , , ,   %.8 C ,   0   K     ~.l ~.i F Q ~ # # # j ",
"o ) I X P           #.#.a , ,   ^   & & & & l l i F t ~ j # j # ",
"o P ^ P   x o o P   , #.8 , ,       & & & ~.l l ~.E Q ~ # # # j ",
"o $ X H ^ q % g P   , , #., ,   ^   & & i l ~.l l F t ~ j # j # ",
"o < < H P % g g P   , , , ,     ^   & l ~.l l l l F Q ~ # # j # ",
"o < H q , -.O > P           ^   ^   ~.l l ~.l ~.~.F t ~ j # # # ",
"o P , P P P P P   % % % P   ^     { ~.l l l l ~.w F Q ~ # j # j ",
"o q % g P O > = P x x _ P   ^   b &.l l l ~.l / w F t ~ j # # # ",
"x -.-.g ^ M = = P x V v P     + b l ~.l ~.l l / / F Q ~ # j # j ",
"o -.g > P M = o P _ v P P   + G l ~.~.l l / / - / F ' ~ # j # # ",
"                          j j ~.l l l / ~.w / / / F t ~ # j # j ",
"j # { j !.{ j { j j { j j j ;.~.l ~.w ~.w - / - - c ' ~ # j # # ",
"# # j j u j j j j j j j j i ~.l l w ~./ / / / - - F t ~ # # j # ",
"# j # j !.K } R E /.E E E E E E c l E c l E c l E 7 ' ~ # j # # ",
"# # # # ' ......4 4 4 h h h h h h h h h h h h h h h Q ~ # # # j ",
"# # j # # ~ ~ ~ ~ ~ ~ ~ ~ ~ ~ ~ ~ ~ ~ ~ ~ ~ ~ ~ ~ ~ ~ ~ # j # # ",
"# j # # j # # j # # j # # j # # j # # j # # j # # j # # j # # j "};
