/* XPM */
static char *dummy[]={
"32 32 701 2",
"c0 c #0071dd",
"di c #0081eb",
"dD c #008cfb",
"gK c #009800",
"g5 c #009c00",
"hi c #009d00",
"f3 c #038a14",
"hj c #03a000",
"hk c #08a101",
"gr c #098f0f",
"hl c #099c0f",
"g2 c #1bb00a",
"hm c #1d9a2f",
"g4 c #1ead13",
"b2 c #22a8ff",
"gJ c #27b419",
"g3 c #29b41b",
"bH c #2b9dec",
"g6 c #2c7c41",
"b1 c #2ca8fe",
"cg c #2faafe",
"b3 c #319ded",
"bG c #319eeb",
"gH c #31bd18",
"gq c #34be20",
"hC c #35ac3c",
"bS c #39adfe",
"cj c #3badfe",
"b4 c #3d80c8",
"ck c #3dadff",
"gI c #3dc229",
"cl c #3faeff",
"ch c #40affd",
"ci c #40affe",
"f2 c #40c828",
"b0 c #41aefa",
"fD c #428520",
"cf c #46b0ff",
"go c #47cc27",
"bF c #49abee",
"cm c #4ab2ff",
"fC c #4fd332",
"h8 c #505058",
"bJ c #525156",
"gp c #52d037",
"ir c #535359",
"iN c #535364",
"cn c #53b6ff",
"hO c #545458",
"hb c #545462",
"gL c #557b7b",
"iT c #575757",
"iC c #595858",
"iS c #595959",
"ik c #59596e",
"hu c #59597a",
"ae c #5a5a5a",
"gU c #5a5a7b",
"cp c #5a8ac6",
"iB c #5b5b5b",
"co c #5bb8fe",
"d2 c #5bbbfa",
"fT c #5c5c6e",
"iq c #5c5c7f",
"gi c #5d5d66",
"iM c #5d5d81",
"ft c #5e5e6e",
".Q c #5eb7fe",
"f0 c #5edc36",
"bZ c #60b9f6",
"iO c #616161",
"i0 c #61616c",
"gC c #626266",
"e6 c #626273",
"dj c #62a8e2",
"dE c #62b0e9",
"#Z c #62b9ff",
"bI c #63788d",
"i1 c #64646a",
"iZ c #64646f",
"cM c #6482b8",
"cF c #64baff",
"d3 c #65b8f2",
"hv c #666666",
"iG c #666688",
"aK c #67649b",
"dX c #676787",
"cH c #67bbff",
"iD c #686868",
"cG c #68bcff",
"f1 c #68df46",
"#R c #696969",
"al c #6986c0",
"cL c #69baf9",
"b5 c #6a89bf",
"cI c #6abcff",
"ij c #6b757f",
"cK c #6bbeff",
"c7 c #6c81bc",
"cJ c #6cbdff",
"bE c #6cbef2",
"bK c #6d6d6d",
"hN c #6d6d94",
"#v c #6f6f6f",
"eI c #6f6f78",
"iY c #70707a",
"h7 c #717195",
"aL c #7171a4",
"e0 c #7176b2",
"bY c #71bff4",
"aD c #727272",
"am c #7281b6",
"gV c #737373",
"fl c #737ab2",
"b9 c #75759c",
"hn c #757ab0",
"g# c #757eb1",
"fA c #75ea45",
"cX c #767697",
"iH c #7676a2",
"ej c #7676a7",
"an c #767aad",
"c3 c #76c0ff",
"g. c #777db0",
"iF c #787883",
"df c #787892",
"ao c #7878ab",
"dz c #7878b8",
"c1 c #78ade0",
"hD c #78c780",
"aM c #7979ab",
"gs c #7988a6",
"iE c #7a7a7a",
"aJ c #7b76a1",
"ap c #7b7aad",
"il c #7b7bb5",
"h0 c #7b91c4",
"c4 c #7bc2ff",
"#B c #7bc3fd",
"c5 c #7bc4ff",
"c. c #7c7c94",
"fM c #7c82ad",
"dq c #7c8dd2",
"aq c #7d7cb0",
"fB c #7dee54",
"hI c #7e7cc7",
"ar c #7e7db1",
"iu c #7e7e7e",
"iL c #7e7ea1",
".R c #7ec2fe",
"#e c #7ec3ff",
"as c #7f7eb3",
"aN c #7f7fb0",
"ii c #7f94a7",
"c6 c #7fc1ff",
"is c #808080",
"h9 c #818181",
"#0 c #81c3fd",
"dM c #8280b2",
"at c #8281b6",
".5 c #828281",
"hH c #829ed3",
"#S c #838383",
"cy c #8383b7",
"au c #8584bb",
"h1 c #8584d1",
"cq c #8589b2",
"b6 c #8591be",
"iU c #868686",
"de c #8686d4",
"fJ c #8786c6",
"gB c #8787a9",
"ev c #886676",
"iR c #888888",
"b8 c #8888b1",
"dl c #8ac7ff",
"i2 c #8c8c8c",
"aO c #8c8cb8",
"f# c #8cfb54",
"iX c #8d8d92",
"hG c #8dc6ef",
"bX c #8dcaf2",
"#d c #8dcbfe",
"eS c #8e7d9d",
"i# c #8e8e8e",
"bD c #8ec7ed",
"dn c #8ec9ff",
"do c #8ecaff",
"b7 c #8f8db6",
"iP c #8f8f8f",
"cW c #8f8fd2",
"cD c #8fbae2",
"dm c #8fc9ff",
"cz c #9090a9",
"dp c #90c9ff",
"i4 c #919191",
"ek c #919195",
"iA c #919293",
"hc c #929292",
"dA c #92929c",
"eH c #9393c9",
"#Y c #93caf6",
"av c #9493c3",
"hP c #949494",
"#6 c #949fd1",
"dI c #94cfff",
"fd c #958cbb",
"iI c #9595c3",
"#9 c #9597cb",
"#8 c #9599cc",
"#7 c #959bce",
"#1 c #95c8fb",
"## c #969696",
"a. c #9697ca",
"f4 c #969cc4",
".S c #96cbfe",
"dG c #96cbff",
"#5 c #97a8db",
"#4 c #97b0e3",
"#f c #97cbff",
"#C c #97ccff",
"hF c #97ced1",
"e1 c #9894dd",
"#3 c #98b9ec",
"#2 c #98c3f6",
"dU c #9999ff",
"dH c #99cdff",
"fa c #99f25e",
"gO c #9a9bff",
"dL c #9aa1e0",
"dJ c #9accff",
"bm c #9b9b99",
"bL c #9b9b9b",
"cZ c #9bbdd8",
"dy c #9c9cff",
".T c #9cccfe",
"#g c #9cccff",
"d5 c #9ccfff",
"hZ c #9cd3ff",
"hJ c #9d9cff",
"#u c #9d9d9d",
"dW c #9d9dee",
"gN c #9d9dff",
"eD c #9d9eff",
"dh c #9dc1db",
"ha c #9e9ebd",
"dx c #9e9eff",
"eZ c #9ea1cb",
"dC c #9ec4de",
"g7 c #9f9ae0",
"fE c #9f9ccb",
"bn c #9f9f9f",
"iK c #9f9fc5",
"aw c #9f9fca",
"eE c #9f9fff",
"dK c #9fc9f3",
".U c #9fccff",
"#D c #9fcdff",
"hY c #9fd0ff",
"a1 c #a0a0a0",
"eg c #a0a0ff",
"ep c #a0d4ff",
"hK c #a1a1ff",
"#p c #a1a2b3",
".P c #a1adb7",
"aP c #a2a2c5",
"dV c #a2a2ff",
"e# c #a35544",
"iv c #a3a3a3",
"ih c #a3b7cb",
"dr c #a4a0be",
"#h c #a4ccff",
".V c #a4ceff",
"iJ c #a5a5d0",
"e4 c #a5a6ff",
"g9 c #a5a7ff",
"hE c #a5d9b0",
"e5 c #a6a6da",
"d6 c #a6ccf2",
"i5 c #a7a7a7",
"dw c #a7a7ff",
"#i c #a7ccff",
"ho c #a8a7fc",
"dT c #a8a8ff",
".w c #a8b8d0",
".W c #a8ceff",
"ip c #a9a9c8",
"#E c #a9cfff",
"af c #aaaaaa",
"eh c #aaaaff",
"bW c #aad6f2",
"eM c #aad7ff",
"ef c #abaaff",
"h2 c #ababff",
"fj c #abaca0",
"gh c #abacc9",
".v c #abb8cb",
".u c #abbacb",
".x c #abbcdc",
".y c #abbddf",
"#j c #abccff",
"f. c #abe2db",
"aC c #acacac",
"ad c #acacb5",
"im c #acacee",
"dd c #acacff",
".X c #acceff",
"cN c #adabc5",
"fi c #adabd6",
"#F c #adcfff",
"bR c #add7f7",
"fz c #ade0d7",
".t c #aebbc9",
"gn c #aedfd1",
"fZ c #aee0d4",
"fs c #afb0d4",
"#k c #afccff",
"gG c #afdfce",
"f9 c #b0a7ec",
"dS c #b0b0ff",
"h. c #b0b1ff",
".Y c #b0ceff",
"fk c #b0d3f3",
"hh c #b0dec6",
"g1 c #b0decb",
".F c #b1b1b1",
"dc c #b1b1ff",
".z c #b1c1ea",
"#G c #b1d1ff",
"fU c #b2b2b2",
"c# c #b2b2bc",
"ei c #b2b2fd",
"eF c #b2b2ff",
"a5 c #b2b7ca",
"cC c #b2c7db",
"iV c #b3b3b3",
"hp c #b3b3ff",
"#l c #b3ccff",
"bC c #b3d1e5",
"fS c #b4b5cf",
".A c #b4c2eb",
".Z c #b4ceff",
"e9 c #b4d9ff",
"a6 c #b5b4cd",
"ea c #b5b5ce",
"aQ c #b5b5d1",
"g8 c #b5b5ff",
"dR c #b5b7ff",
".s c #b5bec6",
"#H c #b5cfff",
"bl c #b6b5b1",
"ah c #b6b6b6",
"cx c #b6b6eb",
"f6 c #b6b6ff",
"#I c #b6cafd",
"#c c #b6defe",
"hx c #b7b7b7",
".E c #b7b8d9",
"fo c #b7b8fa",
"#K c #b7c1f3",
"#J c #b7c5f8",
"#m c #b7ccff",
"eN c #b7d4d6",
"br c #b7e1fd",
"c8 c #b8b4c9",
".0 c #b8ceff",
"ce c #b8dbf7",
"hw c #b9b9b9",
"db c #b9b9ff",
"hq c #b9baff",
"dv c #babaff",
"bk c #bac2c6",
".B c #bac5f0",
"hB c #bae2ce",
"ga c #bbb6d3",
"bP c #bbbbbb",
"bj c #bbcfdc",
"iW c #bcbcbc",
".G c #bcbcbd",
"eq c #bcc6d2",
"ak c #bccbdd",
".1 c #bccdff",
"fy c #bcddff",
"#V c #bdbdbd",
"cV c #bdbdff",
"f7 c #bdbeff",
"dY c #bebebe",
"cE c #beddf5",
"fL c #bee0f7",
"gW c #bfbfbf",
".r c #bfc1c3",
".4 c #bfc3ef",
"he c #c0c0bf",
"Qt c #c0c0c0",
"eG c #c0c0ff",
"iz c #c0c2c3",
".2 c #c0cdff",
".L c #c1c1c1",
".j c #c1c1c5",
".i c #c1c1c9",
"dQ c #c1c2ff",
"#o c #c1cafb",
"#n c #c1cdff",
"fb c #c1d14c",
"hy c #c2c2c1",
"a0 c #c2c2c2",
".C c #c2cafa",
"cc c #c3bfba",
"it c #c3c3c3",
"da c #c3c3ff",
"fp c #c3c4f6",
"hr c #c3c4ff",
"h# c #c3c5ff",
"ew c #c3c9fc",
"gM c #c4bdff",
"#w c #c4c4c4",
"hL c #c4c4ff",
"d7 c #c5bbb0",
"hd c #c5c5c5",
".6 c #c5c5d0",
"dP c #c5c7ff",
".3 c #c5cdff",
"fY c #c5e1ff",
"bs c #c5ecff",
"e3 c #c6c5ff",
".K c #c6c6c6",
"cU c #c6c6ff",
"aE c #c7c7c7",
"aR c #c7c7d9",
"a7 c #c7c7da",
"#a c #c8c7c7",
"eJ c #c8c8c8",
".h c #c8c8cb",
"eT c #c8cbff",
"el c #c9c9c9",
"ff c #c9c9ff",
"fq c #c9caf6",
".D c #c9ceff",
"c2 c #c9e1f5",
".O c #cac9c9",
"d0 c #cacac9",
"aG c #cacaca",
"eU c #cacaff",
".q c #cacbcb",
"du c #cacbff",
"cr c #cbc3d8",
"gj c #cbcbcb",
"d# c #cbcbff",
"d1 c #cbd3d7",
"gw c #ccb1f8",
"fK c #cccca2",
"i. c #cccccc",
"cw c #ccccfb",
"cT c #ccccff",
"fe c #cccdff",
"bQ c #cdcac7",
"#x c #cdcdcd",
"fG c #cdcdff",
"eo c #cddeef",
"dB c #cecbca",
"gt c #cecbff",
"dg c #cecdcb",
"cB c #cecdcc",
"a3 c #cecece",
"#L c #ced0f1",
"bB c #cedbe3",
"bV c #cee3f2",
"gm c #cee6ff",
"gx c #cfb8f4",
"fu c #cfcfcf",
"dt c #cfcfff",
"eL c #cfdfef",
"dk c #cfe1f3",
".M c #d0d0d0",
"cS c #d0d0ff",
"fH c #d0d1ff",
"e8 c #d0deed",
"gP c #d1c1ff",
"cd c #d1ccc9",
"bO c #d1d1d1",
"d4 c #d1dfef",
"dF c #d1e1f1",
"cb c #d2d2d2",
"fx c #d2deeb",
"bM c #d3d3d3",
"fX c #d3deea",
"d8 c #d4b694",
"fF c #d4d3ff",
"ia c #d4d4d4",
"aS c #d4d4e0",
"hM c #d4d4ff",
"fr c #d4d6f8",
"f5 c #d5d3ff",
"h3 c #d5d5ff",
"gl c #d5dfe9",
".J c #d6d6d5",
"cY c #d6d6d7",
"eV c #d6d6ff",
"fg c #d6d7ff",
".g c #d6d8de",
"gE c #d6dfe8",
"bT c #d6eaf6",
"bp c #d7d7d7",
"d. c #d7d7ff",
"gF c #d7eaff",
"fc c #d8813c",
"ee c #d8c9ff",
"aI c #d8d6d4",
"gX c #d8d8d8",
"ht c #d8d8e5",
"cR c #d8d8ff",
"gZ c #d8e0e9",
"gu c #d9d1ff",
"fm c #d9d4fc",
"aX c #d9d8d7",
"#T c #d9d9d9",
"ax c #d9d9df",
"bA c #d9e1e6",
"aY c #dad6d4",
"bi c #dad8d6",
"gY c #dad9d9",
"aW c #dadada",
"#q c #dadafb",
"cv c #dadaff",
".f c #dadbe0",
"en c #dae3e7",
"aZ c #dbdad9",
"aT c #dbdbe2",
"#M c #dbdbff",
"hf c #dbe4ed",
"gD c #dcdbda",
"gk c #dcdcdb",
"a8 c #dcdce7",
"#N c #dcdcff",
"iy c #dcdddd",
"#. c #dddddd",
"aV c #ddddde",
"aU c #dddde2",
"h4 c #ddddff",
"hz c #dde4eb",
"ai c #dededf",
"fW c #dfdede",
".m c #dfdfdf",
"a# c #dfdfe8",
"io c #dfdff2",
"c9 c #dfdfff",
"fP c #dfe2ea",
"fQ c #dfe2eb",
"g0 c #dfeeff",
"eO c #e0c240",
"hQ c #e0e0e0",
"eA c #e1c2fa",
"aH c #e1e1e1",
"cQ c #e1e1ff",
".e c #e1e2e5",
"hR c #e1e7eb",
"hX c #e1f0ff",
"fw c #e2e0df",
"bo c #e2e2e2",
"h6 c #e2e2eb",
"d9 c #e3b67b",
"fn c #e3e2fd",
"cA c #e3e3e3",
"cu c #e3e3ff",
"cs c #e4e0f3",
"e7 c #e4e3e2",
".d c #e4e4e4",
"#O c #e4e4ff",
"ig c #e4e8ed",
"bg c #e5dfdb",
"bf c #e5e1de",
"fV c #e5e5e5",
"ib c #e5e8eb",
"fR c #e5e9f0",
"bh c #e6ddd7",
"aj c #e6e3e0",
"be c #e6e4e1",
"ca c #e6e6e6",
"aB c #e6e6e7",
"dO c #e6e8ff",
"eC c #e7deff",
"ct c #e7e6fe",
"fv c #e7e7e7",
"h5 c #e7e7ff",
"bz c #e7e8e8",
"ec c #e8cbff",
"eK c #e8e6e3",
"bd c #e8e7e5",
".n c #e8e8e8",
"#Q c #e8e8ef",
"#r c #e8e8ff",
"#A c #e8eff5",
"hg c #e8f3ff",
"eR c #e98636",
".I c #e9e9e9",
"in c #e9e9ff",
"eW c #e9eaff",
"gS c #eadaff",
"aA c #eaeae9",
"a9 c #eaeaef",
"gT c #eaeaf1",
"hs c #eaeaff",
"e. c #eb9a51",
"ed c #ebccff",
"#y c #ebeae9",
"a4 c #ebebea",
".H c #ebebef",
"iw c #ebeced",
"#b c #ebeff3",
"hU c #ebf6fd",
"ay c #ececea",
"gf c #eceef5",
"hT c #ecf6fe",
"bc c #edecea",
".k c #ededed",
"ge c #edeef5",
".c c #eeeded",
"bb c #eeeeec",
"ac c #eeeeff",
"gd c #eef0f6",
"hA c #eef6ff",
"hS c #eef8ff",
"az c #efefed",
"#W c #efefee",
"#s c #efefff",
"bU c #eff1f3",
"#X c #f0ece9",
".l c #f0f0f0",
"#P c #f0f0ff",
"em c #f1efed",
"ba c #f1f1ef",
"iQ c #f1f1f1",
"fN c #f2eef7",
".N c #f2f2f2",
"fO c #f2f3f7",
"ix c #f2f4f4",
"by c #f3ede9",
".b c #f3f2f2",
"b# c #f3f3f2",
"i6 c #f3f3f3",
"gQ c #f4cbff",
"dZ c #f4f4f4",
"dN c #f4f4f7",
"gR c #f5ceff",
"i3 c #f5f5f5",
".7 c #f5f5ff",
"gg c #f5f7fb",
".o c #f6f6f6",
"aa c #f6f6fa",
"ab c #f6f6ff",
"hV c #f6f9ff",
"if c #f6fbff",
"e2 c #f7f0ff",
"eb c #f7f3ff",
"b. c #f7f7f5",
"bN c #f7f7f7",
"cP c #f7f7ff",
"aF c #f8f8f8",
"gc c #f8f8fb",
"ie c #f8fdff",
"eu c #f98c29",
"a2 c #f9f9f9",
"#t c #f9f9ff",
"ic c #f9ffff",
"ez c #fad1ff",
".a c #fafafa",
"eP c #fbb34a",
"gv c #fbe1ff",
"eY c #fbecfb",
"bw c #fbf4ef",
"bv c #fbf7f4",
"bq c #fbf8f6",
"ag c #fbfbfb",
"gA c #fbfbfc",
"id c #fbffff",
"bx c #fcf2ec",
"fI c #fcf4ff",
"bu c #fcfaf8",
"#U c #fcfcfc",
"gz c #fcfcfd",
"hW c #fcfcff",
"eB c #fde3ff",
"f8 c #fdf3ff",
"gy c #fdfcfd",
".p c #fdfdfd",
".8 c #fdfdff",
"#z c #fef9f5",
"cO c #fefcfc",
".# c #fefefe",
"ds c #fefeff",
"er c #ff9827",
"es c #ffa333",
"et c #ffae40",
"eQ c #ffb34c",
"ey c #ffe7ff",
"eX c #fff5ff",
"fh c #fff7ff",
"gb c #fff9ff",
"ex c #fffcff",
"bt c #fffffc",
".9 c #ffffff",
"QtQtQtQt.#.#.#.a.b.c.d.e.f.g.h.i.j.k.l.m.d.n.o.p.#QtQtQtQtQtQtQt",
"Qt.d.q.r.s.t.u.v.w.x.y.z.A.B.C.D.E.F.G.H.I.J.K.L.M.N.pQtQtQtQtQt",
".O.P.Q.R.S.T.U.V.W.X.Y.Z.0.1.2.3.4.5.6.7.8.9.9#.##.M.oQtQtQtQtQt",
"#a#b#c#d#e#f#g.U#h#i#j#k#l#m.1#n#o#p#q#r#s#t.9#u#v#w.oQtQtQtQtQt",
"#x#y#z#A#B#e#C#g#D.V#E#F#G#H#I#J#K#L#M#N#O#P#Q#R#S#T#UQtQtQtQtQt",
".k#V#W#X#Y#Z#0#1#2#3#4#5#6#7#8#9a.a#aaabacacadaeaf.kQtQtQtQtQtQt",
"agahaiajakalamanaoapaqarasatauavawaxayazaAaBaCaDaEaFQtQtQtQtQtQt",
".#aG#.aHaIaJaKaLaMaNaOaPaQaRaSaTaUaHaVaWaXaYaZa0a1.ma2.#QtQtQtQt",
"Qta3.n.9a4a5a6a7a8a9b.b#babbbcbdbebfbgbhbibjbkblbmbnboagQtQtQtQt",
"Qta3bpbobqbrbsbtbubvbwbxbybzbAbBbCbDbEbFbGbHbIbJbKbLbMbNQtQtQtQt",
"Qta3bObPbQbRbSbTbUbVbWbXbYbZb0b1b2b3b4b5b6b7b8b9c.c#ca.aQtQtQtQt",
"Qta3cbcccdcecfcgchcicjckclcmcncocpcqcrcsctcucvcwcxcyczcA.a.#QtQt",
"QtcBcCcD#TcEcFcGcHcGcIcJcJcKcLcMcNcOcP#rcQcRcScTcUcVcWcXcYaF.#Qt",
"QtcBcZc0c1c2c3c4c4c4c4c4c5c6c7c8.9.9cPc9d.cSd#dadbdcdddedfbpa2Qt",
"Qtdgdhdidjdkdldmdmdmdndodpdqdr.9.9.9ds#NdtdudadvdcdwdxdydzdA.d.p",
"QtdBdCdDdEdFdGdHdIdIdJdKdLdMdN.9.9.9.9dOdPdQdRdSdTdxdUdVdWdXdYdZ",
"Qtd0d1d2d3d4d5d6d7d8d9e.e#ea.9.9.9.9.9ebecedeeefdydUegeheiejek.d",
"QtelaIemeneoepeqereseteuevewcu.7.8.9exeyezeAeBeCeDeEeheFeGeHeIcb",
"QteJcba4eKeLeMeNeOePeQeReSeTeUd#eVeWeXeYeZe0e1e2e3e4eFdveUe5e6a0",
"QteJbO.Ie7e8e9f.f#fafbfcfdfecTcTfffgfhfifjfkflfmfnfofpfqfrfsftah",
"QtaEfufvfwfxfyfzfAfBfCfDfEfFfGd#dafHfIfJfKfLfMfNfOfPfQfQfRfSfTfU",
"QtaE#xfVfWfXfYfZf0f1f2f3f4f5d#daf6f7f8f9g.g#gagbgcgdgegfggghgiah",
"Qt.KgjcAgkglgmgngogpgqgrgsgtdadbdSe4gugvgwgxeyeX.9.9gygzgAgBgCa0",
"Qt.KaGaHgDgEgFgGgHgIgJgKgLgMdbdSdwgNgOgPgQgRgS.9.9.9.9.9gTgUgVbO",
"Qt.KgWgXgYgZg0g1g2g3g4g5g6g7g8dwdxdUegg9h.dbh##t.9.9.9.9hahbhccA",
"QthdbP.FhehfhghhhihjhkhlhmhnhoeEdUegehhphqhrd#hs.9.9.9hthuhvhw.N",
"Qt#whxahhyhzhAhBhChDhEhFhGhHhIhJhKeheFdvhLcThMcuds.9gThNhOhPhQ#U",
"Qt#wdY.LhxhRhShThUhVhWhXhYhZh0h1h2g8dvdacTh3h4h5.9h6h7h8h9i.bNQt",
"Qt.ni#dYiaibicididieifigihiiijikilimcUdtcvcQinioipiqirisit.N.#Qt",
"Qt.a#TiuiviwixiyiziA#viBiCiBiDiEiFiGiHiIiJiKiLiMiNiOiPeliQ.#QtQt",
"Qt.#bN#TiRiubKiSiTiOaDiUbLiVaGaW#TiWiXiYiZi0i1aDi2iV#.i3.#QtQtQt",
"QtQtQt.aaH.Fi2i4i5bPa3#..niQa2.##Ui6cAbOitgWa0fuhQ.lagQtQtQtQtQt"};
