/* XPM */
static char *dummy[]={
"48 48 253 2",
"Qt c None",
".Q c #003399",
"bS c #00359b",
"b1 c #00369c",
"bX c #00399f",
"bR c #003ea4",
"bW c #0043a9",
"bQ c #0046ac",
"bJ c #004ab0",
"bP c #004fb5",
"bI c #0054ba",
"bE c #005ac0",
"bA c #0060c6",
"am c #0065cb",
"a9 c #0069cf",
"aQ c #006ed4",
"b. c #0074da",
"#s c #0099ff",
"b4 c #0342a7",
"bK c #043494",
"b2 c #0644a8",
"a2 c #0841a4",
"b0 c #0846aa",
"be c #0a358c",
".d c #0d3f9f",
"aw c #0d6ecf",
"#r c #0e9eff",
"#6 c #0f85e6",
"aR c #123885",
"ab c #1295f5",
".3 c #1557b6",
"#V c #156ecb",
"bB c #1760bc",
"aV c #1779d6",
".w c #194aa5",
"ba c #1a86cf",
"bY c #1b3b7c",
"#B c #1da3ff",
"#K c #1e73c9",
"b6 c #1f4591",
".u c #2056b1",
"#m c #217ad5",
".9 c #226ec3",
"#d c #2375cd",
"#o c #2781d9",
".l c #2952a5",
"#a c #2a95ec",
"a3 c #2b2618",
"#e c #2b4476",
"#A c #2ba7fe",
"aI c #2d669f",
"bz c #2f80cb",
".S c #308ade",
".e c #3164b3",
"br c #347cd1",
"bZ c #37496c",
"#. c #384d76",
".a c #385eab",
"#y c #3aadff",
"#t c #3cb1ff",
"a5 c #3d82b2",
"as c #3f7acb",
"bU c #3f85c5",
"bm c #3f85d7",
".C c #3f94e0",
"bn c #3fb0f3",
"#q c #40b2fa",
"#n c #44b1ff",
"#X c #4568ae",
"#f c #45adfc",
"bT c #465267",
".c c #486bb1",
".J c #4a9ae7",
".E c #4b5872",
".f c #4b7ebf",
"#c c #4bb2ff",
"bC c #4cb0ea",
"#1 c #4d738b",
"#5 c #4e81cc",
".F c #4f8bc6",
"at c #4f97d6",
"#l c #4fb8fa",
"aJ c #515151",
"## c #52b5ff",
"bx c #55acce",
".U c #56acf5",
".# c #5878b8",
".v c #59606c",
".B c #59a4ea",
"#g c #5a9ad9",
".7 c #5ab8ff",
"b5 c #5b77b1",
"bu c #5db2e0",
".6 c #5eb9fe",
"aB c #604343",
".G c #6196c8",
".b c #627eb8",
".R c #63b2f2",
".K c #64a3e0",
".g c #6598cc",
"aZ c #665020",
"aA c #66737f",
"#9 c #676565",
".2 c #67bcff",
"aH c #6aadf0",
".5 c #6ac1fe",
"ac c #6fa6d3",
".V c #6fbeff",
"aC c #707070",
"ah c #70a3c9",
".I c #70b5f3",
"#2 c #733d43",
"a# c #753434",
".X c #75c3ff",
"ar c #777777",
"bd c #78b1ad",
"aT c #7a7653",
".A c #7abaf5",
".P c #7ac2ff",
".k c #7c7c7c",
"#x c #7cafe6",
"bw c #7ec7e4",
"#k c #7ecbfc",
"#0 c #7facc8",
"aP c #7fafd5",
"#J c #7fb1dc",
"au c #7fc9f1",
".L c #81b3e4",
".D c #81c4ff",
".W c #83ccff",
".h c #88bbdf",
"ai c #898989",
"aG c #89c2fa",
"bO c #8db5c6",
".x c #8fc1e8",
".t c #8fc9ff",
".H c #91d3fc",
"a. c #97aea3",
".s c #97ceff",
".i c #99c9e8",
"#3 c #9c130c",
"#8 c #9ec2da",
".r c #9ed8fd",
".4 c #a1cdf2",
".q c #a3deff",
"az c #a5d3ff",
"a0 c #a69245",
".j c #a6d9ec",
"aq c #a7ac8c",
"bV c #a8c4c4",
"#W c #a96161",
"ao c #a9bed4",
"#C c #abdcff",
".z c #abe3ff",
"aO c #aed6ff",
".M c #afceea",
"#j c #afddf5",
".p c #b1e6ff",
".y c #b2eaff",
"aF c #b3daff",
"ay c #b6dbff",
"a4 c #b9902a",
"ax c #b9d9f9",
".o c #b9edff",
"a6 c #bac5ae",
"bh c #baddff",
"b3 c #bccfc0",
"bp c #bdd1cd",
"aX c #bdd3d6",
"bk c #bedeff",
"aL c #bee0e5",
".Y c #bfd7e9",
"#z c #bfe3f3",
"#O c #bfe6ff",
".n c #bff2ff",
"aU c #c0dfff",
"b# c #c0e1ff",
"bb c #c2c07a",
"#4 c #c44116",
"aE c #c4e1ff",
".m c #c4f7ff",
"bg c #c5e2ff",
"an c #c7e1fc",
"al c #cbd2bd",
"av c #cbe4ff",
"aN c #ccd8c9",
"bj c #cde6ff",
"#p c #cee9f3",
"#w c #cfe0ec",
".N c #cfe2f3",
"ak c #d2e8ff",
"aM c #d4e9ff",
"#D c #d4edff",
"ag c #d5eaff",
"#7 c #dbedff",
"aj c #dc6522",
"#Z c #dceeff",
"aW c #dde7d3",
"#i c #def0f3",
".Z c #dfebf2",
"#H c #e2f0ff",
"#T c #e5f2ff",
"#G c #e9f4ff",
"bq c #ecebc5",
"#F c #ecf6ff",
"a1 c #edefdb",
"#Y c #edf1e6",
".8 c #eef4f0",
"by c #f0cd63",
"#E c #f0f8ff",
"aa c #f2862d",
"#I c #f3ca58",
"#S c #f4faff",
"bo c #f5d574",
"#u c #f6db85",
"bc c #f8e197",
"#R c #f8fbff",
"bG c #faeaac",
"ap c #fafafa",
"#U c #fbefc5",
"bD c #fbf0bc",
"bH c #fbf2bf",
"bM c #fbf3c1",
"bN c #fbf3c3",
"bs c #fbf5ce",
"bL c #fcf3c4",
"bF c #fcf4c7",
"bv c #fcf5c9",
"bt c #fcf5cb",
"bi c #fcf6d2",
"bf c #fcf7d5",
"a8 c #fcf7d7",
"a7 c #fcf7d9",
"aY c #fcf7da",
"#Q c #fcfeff",
"bl c #fdf6d1",
"aS c #fdf8dc",
"aK c #fdf8de",
"aD c #fdf8e0",
"ad c #fdf9e3",
"ae c #fdfae5",
"af c #fdfae7",
"#L c #fdfae9",
"#M c #fefbeb",
"#N c #fefbed",
"#v c #fefcee",
"#h c #fefcf1",
"#b c #fefdf4",
".1 c #fffef7",
".0 c #fffef9",
".T c #fffffb",
"#P c #fffffe",
".O c #ffffff",
"QtQtQtQtQtQtQtQtQtQtQtQtQtQtQtQtQtQtQtQtQtQtQtQtQtQtQtQtQtQtQtQtQtQtQtQt.#.#.a.bQtQtQtQtQtQtQtQt",
"QtQtQtQtQtQtQtQtQtQtQtQtQtQtQtQtQtQtQtQtQtQtQtQtQtQtQtQt.#.#.c.a.d.e.f.g.h.i.j.e.kQtQtQtQtQtQtQt",
"QtQtQtQtQtQtQtQtQtQtQtQtQtQtQtQtQtQtQtQtQt.#.#.a.l.d.e.f.g.h.i.m.n.o.p.q.r.s.t.u.v.kQtQtQtQtQtQt",
"QtQtQtQtQtQtQtQtQtQtQtQtQtQt.#.#.a.w.d.e.f.g.h.x.m.m.y.z.q.A.B.C.B.D.D.D.D.D.D.u.E.kQtQtQtQtQtQt",
"QtQtQtQtQtQtQt.#.#.a.d.w.e.F.G.h.x.m.n.o.y.r.H.I.B.C.J.K.L.M.N.O.x.J.P.P.P.P.P.u.E.kQtQtQtQtQtQt",
"QtQt.a.Q.w.e.#.G.x.i.n.n.o.z.r.H.P.R.J.S.B.K.L.M.N.T.T.T.T.T.T.T.T.K.U.V.V.V.V.u.E.kQtQtQtQtQtQt",
"Qt.u.i.o.o.o.z.q.H.W.X.U.C.S.B.K.L.Y.Z.0.1.0.0.0.0.0.0.0.0.0.0.0.0.0.K.U.2.2.2.3.E.kQtQtQtQtQtQt",
".d.4.p.W.5.6.7.6.7.S.L.Y.Z.0.1.1.1.1.1.1.1.1.1.1.1.1.1.1.1.1.1.1.1.1.8.S.U.6.6.9#..kQtQtQtQtQtQt",
".Q.z.X###########a.i#b#b#b#b#b#b#b#b#b#b#b#b#b#b#b#b#b#b#b#b#b#b#b#b#b.8.C#c###d#e.kQtQtQtQtQtQt",
".l.L.2#c#c#c#c#f#g#h#h#h#h#h#h#h#h#h#h#h#h#h#h#h#h#i#j#k#l#l#h#h#h#h#h#h.8#m#f#d#e.kQtQtQtQtQtQt",
".a.L.5#n#n#n#n#o.8#h#h#h#h#h#h#h#h#h#h#h#p.r.5#q#r#s#t.5.W#s#u#h#h#h#h#h#v#w.S#d#e.kQtQtQtQtQtQt",
".a#x.X#y#y#y#a.M#v#v#v#v#v#v.8#z.H.6#A#s#B#l#k#C#D#E#F#G#H#s#I#v#v#v#v#v#v#v#J#K#e.kQtQtQtQtQtQt",
".a#x.5#A#A#A#g#L#M#N#N#N#N#l#r#q.X.r#O#P.O#Q#R#S#E#F#G#T#H#r#I#U#N#N#N#N#N#N#J#V#e#W#W.kQtQtQtQt",
"#X#g.2#A#A.S#Y#M#M#M#M#M#M#q#O.O#P.O.O.O#Q#R#S#E#F#G#T#H#Z#r#I#U#M#M#M#M#M#M#0#1#2#3#4#3.kQtQtQt",
"#X#5.7#B#6.Y#L#L#L#L#L#L#L#q#O.O.O.O.O#Q#R#S#E#F#G#T#H#Z#7#r#I#U#L#L#L#L#8.F#9a.a##4aa#4#3.kQtQt",
"#X#5.Pabacadaeafafafafafaf#t#O.O.O.O#Q#R#S#E#F#G#T#H#Z#7ag#r#I#Uaf#Y#J#m#mahai.Oa##3aj#4#3.kQtQt",
"#X#5.X.S#Yaeaeaeaeaeaeaeae#t#O.O.O#Q#R#S#E#F#G#T#H#Z#7agak#r#Ial#gam.C.4anao.kapaq#3#3#3a#arQtQt",
"#Xas.Vatadadadadadadadadadau#t.O#Q#R#S#E#F#G#T#H#Z#7agakav#a#Kaw.Kaxanayaz.taAai.k#9a#aBaCQtQtQt",
"Qt.u.2.CaDaDaDaDaDaDaDaDaDau#t#Q#R#S#E#F#G#T#H#Z#7agax.Kaw#o.xanaEaFazaGaH.S#VaI#.aJ#9.kQtQtQtQt",
"Qt.u.I.CaKaKaKaKaKaKaKaKaKaL#t#R#S#E#F#G#T#H#Z#7aMaNaw#g.4aMaEaOazaG.B#mamataPaQaRaCQtQtQtQtQtQt",
"Qt.u.A.CaSaKaKaKaKaKaKaKaKaL#t#S#E#F#G#T#H#Z#7ag#waT#oakaUaO.saG.JaVawacaWaKaXaQaR.kQtQtQtQtQtQt",
"Qt.u.A.CaYaSaSaSaSaSaSaSaSaL#t#E#F#G#T#H#Z#7agaoaZa0amaz.s.A.Caw#d#8a1aSaKaSaXaQaR.kQtQtQtQtQtQt",
"Qta2.IaVaYaYaYaYaYaYaYaYaYaL#t#F#G#T#H#Z#7agaMa3a3a4#1aV#oama5a6a7a8aYaYaYaYaXa9aR.kQtQtQtQtQtQt",
"Qt.QaHb.a7a7a7a7a7a7a7a7a7a7#t#G#T#H#Z#7agakb#ba.Gaqaq#g#g#rbbbca7a7a7a7a7a7aXa9aR.kQtQtQtQtQtQt",
"Qt.QaHaVa8a8a8a8a8a8a8a8a8a8#t#T#H#Z#7agakavav.5#B.2aOaxaF#rbdbca8a8a8a8a8a8aXa9be.kQtQtQtQtQtQt",
"Qt.Q.BaVbfbfbfbfbfbfbfbfbfbf#y#H#Z#7agakavavbgbh#A#y#f.saO#rbdbcbfbfbfbfbfbfaXb..Q.kQtQtQtQtQtQt",
"Qt.Q.BaVbibibibibibibibibibi#t#Z#7agaMbjavbgaEbk.D#y#c.7.X#rbd#ubibibibibiblacb..Q.kQtQtQtQtQtQt",
"Qt.lbmaVaNblblblblblblblblblbn#7agaMbjavbgaEbkbhay.7##.2.X#rbdboblblblblblbpa9aQ.Q.kQtQtQtQtQtQt",
"Qt.abm#oaXblblblblblblblblblbnagaMbjavbgaEbkbhayaF.t.2.X.D#rbdboblblblblbq#maQaQ.Q.kQtQtQtQtQtQt",
"Qt.abr#obpbsbsbsbsbsbsbsbsbsbnaMbjavbgaEbkbhayaFaOaO.P.D.t#rbdbobsbsbsbsacama9a9.Q.kQtQtQtQtQtQt",
"Qt.abr#mbpbtbtbtbtbtbtbtbtbtbnbjavbgaEbkbhayaFaOaOaz.t.2#cbuaqbobtbtbtbpamamamam.Q.kQtQtQtQtQtQt",
"Qt.a.9#mbpbvbvbvbvbvbvbvbvbvbwazbgaEbkbhayaF.t.6#tbxbdbbby#Iby#ubvbvbvbzbAbAbAbA.Q.kQtQtQtQtQtQt",
"Qt#XbB#m#0bvbvbvbvbvbvbvbvbvbw.saEaz.X##bCbxa.bb#I#Ibo#ubcbDbvbtbvbv#0bEbEbEbEbE.Q.kQtQtQtQtQtQt",
"Qt#XbB#mahbFbFbFbFbFbFbFbFbFbw#Abxbdaqbb#I#Ibo#ubGbHbFbvbFbFbFbFbFaNbAbEbEbEbIbJbK.kQtQtQtQtQtQt",
"Qt#X.3#mbEahbLbLbLbLbLbLbLbMaWbG#Iby#ubcbGbLbLbFbLbLbLbNbNbLaNbO.G.9bPbQbRbSbKaRbT.kQtQtQtQtQtQt",
"Qt#X.3#KbPbIbUbqbNbNbNbNbNbNbMbDbDbNbMbMbNbNbNbNbMbqbV#0bUbEbPbWbX.QbebYbZbT#9ararQtQtQtQtQtQtQt",
"QtQtb0#VbJbJbP#KaNbMbMbMbMbMbMbMbMbMbMbMbMaNbO.G.9bIbQbRb1.QaR#ebZ.vaC.k.k.kQtQtQtQtQtQtQtQtQtQt",
"QtQtb2aVbQbQbQbQbBbVbHbHbHbHbHbHbqbV#0bUbIbJbWbX.QbebY#ebT#9aC.k.k.kQtQtQtQtQtQtQtQtQtQtQtQtQtQt",
"QtQtb2awbWbWbWbWbWbPahbDb3bO.F.9bPbQbXb1.QaRbYbZ.vaC.k.k.k.kQtQtQtQtQtQtQtQtQtQtQtQtQtQtQtQtQtQt",
"QtQtb4awbRbRbRbRbRbRbQbIbJbRbS.QbKaR#ebT#9aC.k.k.kQtQtQtQtQtQtQtQtQtQtQtQtQtQtQtQtQtQtQtQtQtQtQt",
"QtQtb1awbXbXbXbXb1b1bS.QbebYbZbT#9ar.k.k.kQtQtQtQtQtQtQtQtQtQtQtQtQtQtQtQtQtQtQtQtQtQtQtQtQtQtQt",
"QtQt.QambSbSbS.QaR#ebT.vaC.k.k.k.kQtQtQtQtQtQtQtQtQtQtQtQtQtQtQtQtQtQtQtQtQtQtQtQtQtQtQtQtQtQtQt",
"QtQtb5b6bY#ebT#9aC.k.k.kQtQtQtQtQtQtQtQtQtQtQtQtQtQtQtQtQtQtQtQtQtQtQtQtQtQtQtQtQtQtQtQtQtQtQtQt",
"QtQtQtQt.k.k.k.kQtQtQtQtQtQtQtQtQtQtQtQtQtQtQtQtQtQtQtQtQtQtQtQtQtQtQtQtQtQtQtQtQtQtQtQtQtQtQtQt",
"QtQtQtQtQtQtQtQtQtQtQtQtQtQtQtQtQtQtQtQtQtQtQtQtQtQtQtQtQtQtQtQtQtQtQtQtQtQtQtQtQtQtQtQtQtQtQtQt",
"QtQtQtQtQtQtQtQtQtQtQtQtQtQtQtQtQtQtQtQtQtQtQtQtQtQtQtQtQtQtQtQtQtQtQtQtQtQtQtQtQtQtQtQtQtQtQtQt",
"QtQtQtQtQtQtQtQtQtQtQtQtQtQtQtQtQtQtQtQtQtQtQtQtQtQtQtQtQtQtQtQtQtQtQtQtQtQtQtQtQtQtQtQtQtQtQtQt",
"QtQtQtQtQtQtQtQtQtQtQtQtQtQtQtQtQtQtQtQtQtQtQtQtQtQtQtQtQtQtQtQtQtQtQtQtQtQtQtQtQtQtQtQtQtQtQtQt"};
